<svg xmlns="http://www.w3.org/2000/svg" version="1.1" xmlns:xlink="http://www.w3.org/1999/xlink" xmlns:svgjs="http://svgjs.dev/svgjs" width="2000" height="2000" viewBox="0 0 2000 2000"><g transform="matrix(1,0,0,1,-0.9999999999998863,-0.9999999999998863)"><svg viewBox="0 0 280 280" data-background-color="#61777f" preserveAspectRatio="xMidYMid meet" height="2000" width="2000" xmlns="http://www.w3.org/2000/svg" xmlns:xlink="http://www.w3.org/1999/xlink"><g id="tight-bounds" transform="matrix(1,0,0,1,0.13999999999998636,0.13999999999998636)"><svg viewBox="0 0 279.72 279.72" height="279.72" width="279.72"><g><svg viewBox="0 0 279.72 279.72" height="279.72" width="279.72"><g><svg viewBox="0 0 279.72 279.72" height="279.72" width="279.72"><g id="textblocktransform"><svg viewBox="0 0 279.72 279.72" height="279.72" width="279.72" id="textblock"><g><svg viewBox="0 0 279.72 279.72" height="279.72" width="279.72"><g transform="matrix(1,0,0,1,44.260577397141134,44.260577397141134)"><svg viewBox="0 0 191.19884520571776 191.19884520571776" height="191.19884520571776" width="191.19884520571776"><g id="icon-0"><circle r="96" cx="95.59942260285888" cy="95.59942260285888" fill="#ffffff" data-fill-palette-color="accent"></circle><svg xmlns="http://www.w3.org/2000/svg" xmlns:xlink="http://www.w3.org/1999/xlink" version="1.1" x="28.67982678085766" y="28.67982678085766" viewBox="1.1 13.399999999999999 97.80000000000001 73.10242952049867" enable-background="new 0 0 100 100" xml:space="preserve" height="133.83919164400243" width="133.83919164400243" class="icon-xg-0" data-fill-palette-color="quaternary" id="xg-0"><path d="M1.1 79.9v-4.1h5.4 0.3V33.2c0-3.4 2.7-6.1 6.1-6.1h23.7c-0.5 2-0.8 4.1-0.8 6.3 0 0.7 0 1.3 0.1 2H15v40.4h21.2v0.4c0 1.3 1 2.3 2.3 2.3h11.6c1.3 0 2.3-1 2.3-2.3v-0.4h21.2V58.5H79c1 0 2-0.1 3-0.2v17.4h0.3 5.4v4.1c0 3.7-3 6.7-6.7 6.7h-6.4H14.2 7.8C4.1 86.6 1.1 83.6 1.1 79.9zM40.8 33.4c0-11 9-20 20-20h18.1c11 0 20 9 20 20 0 11-9 20-20 20H65.4l-9.2 9.2c-0.6 0.6-1.7 0.2-1.7-0.7v-9.5C46.5 49.7 40.8 42.3 40.8 33.4zM52.7 33.5c0 1.1 0.2 2.1 0.6 3.1 0.4 1 1 1.9 1.8 2.7 0.8 0.8 1.7 1.4 2.7 1.8 1 0.4 2 0.6 3.1 0.6 1.1 0 2.1-0.2 3.1-0.6 1-0.4 1.9-1 2.7-1.8l0.6-0.6-2.6-2.6-0.6 0.6c-0.9 0.9-2 1.3-3.2 1.3-1.2 0-2.3-0.5-3.2-1.3-0.9-0.9-1.3-2-1.3-3.2s0.5-2.3 1.3-3.2c0.9-0.9 2-1.3 3.2-1.3 1.2 0 2.3 0.5 3.2 1.3l3.2 3.2 5.8 5.8c0.8 0.8 1.7 1.4 2.7 1.8 1 0.4 2 0.6 3.1 0.6 1.1 0 2.1-0.2 3.1-0.6 1-0.4 1.9-1 2.7-1.8 0.8-0.8 1.4-1.7 1.8-2.7 0.4-1 0.6-2 0.6-3.1 0-1.1-0.2-2.1-0.6-3.1-0.4-1-1-1.9-1.8-2.7-0.8-0.8-1.7-1.4-2.7-1.8-1-0.4-2-0.6-3.1-0.6-1.1 0-2.1 0.2-3.1 0.6-1 0.4-1.9 1-2.7 1.8l-0.7 0.7L75 31l0.7-0.7c0.9-0.9 2-1.3 3.2-1.3 1.2 0 2.3 0.5 3.2 1.3 0.9 0.9 1.3 2 1.3 3.2s-0.5 2.3-1.3 3.2c-0.9 0.9-2 1.3-3.2 1.3-1.2 0-2.3-0.5-3.2-1.3l-1.3-1.3-7.7-7.7c-0.8-0.8-1.7-1.4-2.7-1.8-1-0.4-2-0.6-3.1-0.6-1.1 0-2.1 0.2-3.1 0.6-1 0.4-1.9 1-2.7 1.8-0.8 0.8-1.4 1.7-1.8 2.7C52.9 31.4 52.7 32.4 52.7 33.5z" fill="#61777f" data-fill-palette-color="quaternary"></path></svg></g></svg></g><g id="text-0"><path d="M23.825 95.805v0c0.357-0.054 0.72-0.084 1.087-0.09 0.371 0.002 0.746 0.005 1.123 0.009v0c-0.295-0.251-0.572-0.506-0.828-0.764-0.253-0.249-0.505-0.519-0.757-0.81v0l-12.571-15.073c-0.216-0.271-0.32-0.5-0.31-0.69 0.003-0.192 0.067-0.446 0.19-0.763v0l1.015-2.598 26.044 10.172-1.208 3.092-19.135-7.474c-0.255-0.099-0.525-0.212-0.812-0.339-0.287-0.126-0.578-0.261-0.872-0.405v0l12.802 15.281c0.427 0.518 0.534 1.049 0.321 1.596v0l-0.2 0.512c-0.213 0.546-0.651 0.862-1.314 0.947v0l-19.906 2.742c0.331 0.086 0.652 0.18 0.964 0.28 0.309 0.106 0.591 0.209 0.845 0.308v0l19.135 7.474-1.204 3.082-26.043-10.172 1.014-2.598c0.124-0.317 0.249-0.547 0.377-0.69 0.121-0.146 0.353-0.245 0.696-0.297v0z" fill="#ffffff" data-fill-palette-color="primary"></path><path d="M42.304 59.432l10.141 7.554-0.919 1.235c-0.203 0.273-0.409 0.46-0.618 0.562-0.204 0.106-0.462 0.084-0.774-0.066v0l-1.7-0.78c0.064 0.696 0.095 1.351 0.094 1.965 0.005 0.618-0.055 1.222-0.178 1.812-0.123 0.59-0.317 1.173-0.58 1.749-0.269 0.573-0.628 1.161-1.078 1.765v0c-0.458 0.615-0.973 1.128-1.546 1.541-0.569 0.407-1.175 0.679-1.817 0.815-0.641 0.146-1.311 0.137-2.011-0.027-0.699-0.155-1.409-0.501-2.131-1.039v0c-0.625-0.466-1.099-1.085-1.421-1.856-0.328-0.776-0.429-1.716-0.305-2.82 0.12-1.099 0.503-2.376 1.147-3.833 0.635-1.455 1.6-3.096 2.895-4.923v0l-1.235-0.92c-1.229-0.916-2.356-1.344-3.381-1.284-1.021 0.054-1.917 0.599-2.69 1.636v0c-0.506 0.679-0.844 1.312-1.015 1.899-0.175 0.592-0.283 1.139-0.325 1.64-0.037 0.496-0.062 0.931-0.073 1.304-0.012 0.373-0.108 0.68-0.287 0.92v0c-0.139 0.187-0.309 0.314-0.509 0.382-0.209 0.069-0.416 0.089-0.619 0.062v0l-1.266-0.158c-0.192-1.506-0.118-2.921 0.222-4.247 0.33-1.325 0.953-2.602 1.868-3.831v0c0.661-0.887 1.395-1.566 2.203-2.036 0.807-0.47 1.646-0.748 2.514-0.832 0.87-0.075 1.766 0.044 2.688 0.357 0.917 0.309 1.819 0.794 2.706 1.454zM45.351 72.946v0c0.366-0.492 0.653-0.976 0.859-1.455 0.201-0.482 0.346-0.972 0.435-1.471 0.085-0.493 0.12-1.003 0.105-1.529-0.019-0.521-0.077-1.063-0.173-1.625v0l-3.303-2.461c-0.913 1.315-1.623 2.48-2.132 3.498-0.508 1.017-0.843 1.907-1.002 2.669-0.156 0.756-0.153 1.394 0.008 1.913 0.167 0.523 0.47 0.948 0.908 1.274v0c0.417 0.311 0.827 0.508 1.229 0.592 0.404 0.093 0.788 0.097 1.152 0.01 0.364-0.086 0.708-0.254 1.034-0.501 0.316-0.246 0.61-0.551 0.88-0.914z" fill="#ffffff" data-fill-palette-color="primary"></path><path d="M60.671 59.124l-2.577 2.321-19.233-21.355 2.577-2.322 7.78 8.639c0.027-1.235 0.243-2.399 0.65-3.491 0.401-1.088 1.1-2.08 2.095-2.976v0c0.802-0.722 1.631-1.227 2.486-1.512 0.855-0.286 1.706-0.371 2.554-0.256 0.853 0.12 1.695 0.428 2.528 0.925 0.828 0.492 1.617 1.153 2.367 1.985v0l8.422 9.352-2.585 2.328-8.422-9.352c-1.003-1.114-2.032-1.748-3.086-1.902-1.063-0.155-2.117 0.238-3.162 1.179v0c-0.763 0.687-1.311 1.512-1.644 2.476-0.329 0.96-0.492 2.008-0.49 3.146v0z" fill="#ffffff" data-fill-palette-color="primary"></path><path d="M90.79 38.432l-1.795 1.029c-0.428 0.245-0.819 0.193-1.173-0.157v0l-1.462-1.928c-0.224 1.311-0.653 2.506-1.288 3.584-0.638 1.072-1.566 1.958-2.786 2.657v0c-0.983 0.563-1.981 0.886-2.994 0.967-1.019 0.085-2.019-0.079-3.002-0.492-0.987-0.41-1.949-1.076-2.885-1.999-0.927-0.92-1.798-2.092-2.613-3.514v0c-0.722-1.26-1.229-2.533-1.52-3.818-0.282-1.283-0.335-2.508-0.16-3.677 0.179-1.162 0.594-2.234 1.246-3.214 0.648-0.986 1.557-1.814 2.725-2.483v0c1.047-0.6 2.045-0.934 2.997-1.003 0.948-0.075 1.9 0.044 2.854 0.357v0l-5.452-9.514 3.018-1.73zM81.887 40.608v0c0.983-0.563 1.715-1.283 2.197-2.158 0.482-0.875 0.797-1.901 0.944-3.076v0l-4.757-8.3c-0.977-0.431-1.882-0.604-2.716-0.517-0.831 0.077-1.646 0.344-2.444 0.801v0c-1.607 0.921-2.513 2.197-2.715 3.826-0.203 1.629 0.3 3.499 1.51 5.61v0c0.64 1.116 1.283 2.018 1.931 2.707 0.648 0.689 1.303 1.181 1.965 1.478 0.671 0.299 1.346 0.412 2.025 0.337 0.674-0.071 1.36-0.307 2.06-0.708z" fill="#ffffff" data-fill-palette-color="primary"></path><path d="M92.409 16.551l3.246-1.222 6.965 18.495-3.246 1.222zM94.207 9.241v0c0.12 0.318 0.166 0.639 0.138 0.963-0.024 0.315-0.104 0.623-0.24 0.923-0.132 0.292-0.316 0.55-0.552 0.774-0.234 0.23-0.506 0.404-0.818 0.522v0c-0.318 0.12-0.638 0.169-0.96 0.147-0.319-0.015-0.625-0.089-0.916-0.221-0.294-0.138-0.554-0.318-0.78-0.539-0.222-0.23-0.393-0.504-0.512-0.822v0c-0.12-0.318-0.174-0.643-0.164-0.974 0.017-0.334 0.091-0.647 0.223-0.939 0.132-0.292 0.313-0.549 0.543-0.77 0.227-0.228 0.5-0.402 0.818-0.522v0c0.312-0.117 0.632-0.167 0.96-0.148 0.325 0.013 0.634 0.085 0.925 0.218 0.298 0.13 0.564 0.315 0.797 0.554 0.239 0.238 0.418 0.515 0.538 0.834z" fill="#ffffff" data-fill-palette-color="primary"></path><path d="M135.647 18.624v0c0.196 0.303 0.373 0.621 0.53 0.953 0.151 0.339 0.302 0.682 0.453 1.028v0c0.107-0.373 0.226-0.729 0.355-1.07 0.123-0.333 0.265-0.674 0.428-1.023v0l8.563-17.661c0.158-0.308 0.325-0.497 0.501-0.566 0.176-0.076 0.434-0.123 0.774-0.141v0l2.785-0.144 1.448 27.922-3.314 0.172-1.064-20.515c-0.014-0.273-0.023-0.566-0.026-0.879-0.003-0.313 0-0.634 0.01-0.962v0l-8.658 17.956c-0.296 0.603-0.736 0.919-1.322 0.95v0l-0.549 0.028c-0.586 0.03-1.053-0.239-1.403-0.808v0l-10.692-17.012c0.058 0.337 0.105 0.669 0.142 0.993 0.03 0.325 0.052 0.625 0.066 0.898v0l1.064 20.515-3.304 0.171-1.449-27.922 2.786-0.145c0.339-0.018 0.601 0.002 0.784 0.06 0.183 0.051 0.368 0.221 0.557 0.512v0z" fill="#ffffff" data-fill-palette-color="primary"></path><path d="M176.402 20.496l-2.712 12.352-1.503-0.331c-0.332-0.073-0.587-0.184-0.767-0.332-0.18-0.142-0.267-0.386-0.259-0.732v0l0.012-1.87c-0.608 0.344-1.192 0.642-1.752 0.894-0.562 0.259-1.137 0.453-1.725 0.584-0.588 0.13-1.199 0.194-1.833 0.191-0.633-0.009-1.317-0.095-2.052-0.256v0c-0.749-0.164-1.429-0.423-2.04-0.775-0.605-0.351-1.102-0.791-1.491-1.32-0.397-0.524-0.664-1.139-0.803-1.845-0.146-0.701-0.123-1.491 0.07-2.369v0c0.167-0.762 0.536-1.448 1.107-2.06 0.572-0.618 1.387-1.098 2.445-1.438 1.051-0.342 2.372-0.52 3.964-0.532 1.587-0.02 3.48 0.184 5.679 0.612v0l0.33-1.504c0.329-1.497 0.255-2.7-0.22-3.61-0.469-0.908-1.335-1.501-2.599-1.778v0c-0.827-0.181-1.543-0.23-2.148-0.144-0.612 0.084-1.155 0.21-1.628 0.38-0.467 0.17-0.873 0.327-1.219 0.469-0.345 0.143-0.664 0.182-0.957 0.117v0c-0.228-0.05-0.413-0.152-0.557-0.306-0.149-0.162-0.252-0.342-0.312-0.539v0l-0.377-1.219c1.293-0.794 2.614-1.309 3.962-1.546 1.343-0.244 2.763-0.202 4.261 0.127v0c1.081 0.237 2.001 0.627 2.762 1.169 0.761 0.542 1.359 1.192 1.793 1.95 0.426 0.762 0.687 1.628 0.781 2.597 0.096 0.963 0.025 1.984-0.212 3.064zM165.34 28.834v0c0.599 0.131 1.158 0.193 1.679 0.185 0.522-0.015 1.028-0.085 1.519-0.209 0.485-0.126 0.964-0.304 1.438-0.534 0.467-0.232 0.937-0.507 1.409-0.826v0l0.883-4.023c-1.574-0.291-2.929-0.459-4.065-0.504-1.136-0.045-2.085 0.017-2.844 0.184-0.753 0.169-1.334 0.434-1.741 0.795-0.408 0.368-0.671 0.818-0.788 1.352v0c-0.111 0.508-0.123 0.962-0.033 1.364 0.081 0.407 0.236 0.758 0.465 1.054 0.228 0.296 0.523 0.541 0.882 0.736 0.355 0.187 0.753 0.329 1.196 0.426z" fill="#ffffff" data-fill-palette-color="primary"></path><path d="M184.239 37.11l-3.176-1.394 11.552-26.316 3.176 1.394-4.673 10.646c1.137-0.484 2.286-0.765 3.449-0.844 1.157-0.082 2.348 0.147 3.575 0.685v0c0.989 0.434 1.789 0.982 2.401 1.643 0.612 0.662 1.04 1.403 1.284 2.223 0.241 0.826 0.307 1.721 0.197 2.685-0.107 0.957-0.386 1.949-0.836 2.974v0l-5.058 11.523-3.186-1.398 5.059-11.524c0.603-1.373 0.758-2.571 0.465-3.595-0.296-1.033-1.088-1.831-2.376-2.397v0c-0.94-0.413-1.918-0.572-2.934-0.479-1.01 0.095-2.033 0.378-3.068 0.847v0z" fill="#ffffff" data-fill-palette-color="primary"></path><path d="M215.497 56.044l-1.677-1.212c-0.4-0.289-0.513-0.667-0.339-1.134v0l1.154-2.126c-1.287 0.336-2.553 0.436-3.796 0.302-1.24-0.14-2.429-0.622-3.568-1.446v0c-0.918-0.664-1.623-1.441-2.114-2.33-0.497-0.894-0.759-1.873-0.787-2.938-0.033-1.069 0.178-2.219 0.634-3.452 0.457-1.224 1.166-2.5 2.127-3.828v0c0.851-1.177 1.803-2.163 2.854-2.957 1.053-0.785 2.148-1.338 3.284-1.659 1.133-0.316 2.28-0.378 3.442-0.188 1.166 0.185 2.294 0.672 3.385 1.461v0c0.977 0.707 1.693 1.48 2.148 2.318 0.458 0.833 0.742 1.749 0.849 2.749v0l6.427-8.886 2.818 2.038zM209.849 48.826v0c0.918 0.664 1.875 1.035 2.87 1.114 0.996 0.079 2.06-0.056 3.193-0.406v0l5.606-7.751c-0.009-1.068-0.225-1.964-0.647-2.689-0.413-0.726-0.991-1.358-1.737-1.897v0c-1.501-1.086-3.036-1.386-4.604-0.9-1.569 0.486-3.066 1.714-4.491 3.686v0c-0.754 1.042-1.311 2-1.672 2.874-0.361 0.874-0.54 1.674-0.538 2.399 0.003 0.734 0.179 1.396 0.526 1.984 0.342 0.585 0.84 1.113 1.494 1.586z" fill="#ffffff" data-fill-palette-color="primary"></path><path d="M240.591 64.134l-9.322 8.545-1.04-1.135c-0.23-0.251-0.375-0.488-0.436-0.712-0.066-0.22 0.004-0.469 0.209-0.748v0l1.086-1.524c-0.695-0.068-1.344-0.16-1.948-0.276-0.608-0.111-1.19-0.283-1.747-0.514-0.556-0.232-1.092-0.531-1.609-0.898-0.512-0.371-1.023-0.835-1.532-1.39v0c-0.518-0.565-0.926-1.168-1.223-1.808-0.293-0.635-0.447-1.281-0.46-1.937-0.023-0.657 0.111-1.313 0.404-1.97 0.283-0.657 0.757-1.29 1.42-1.899v0c0.575-0.527 1.272-0.876 2.09-1.048 0.824-0.176 1.766-0.1 2.827 0.229 1.057 0.324 2.24 0.939 3.549 1.846 1.31 0.897 2.741 2.152 4.294 3.767v0l1.135-1.041c1.13-1.036 1.762-2.062 1.895-3.08 0.138-1.013-0.229-1.996-1.103-2.949v0c-0.572-0.624-1.13-1.075-1.674-1.353-0.549-0.283-1.066-0.492-1.551-0.626-0.48-0.129-0.902-0.235-1.266-0.317-0.364-0.082-0.648-0.233-0.851-0.455v0c-0.158-0.172-0.251-0.362-0.279-0.571-0.028-0.218-0.01-0.425 0.055-0.62v0l0.392-1.214c1.515 0.094 2.891 0.432 4.131 1.014 1.239 0.573 2.377 1.424 3.412 2.554v0c0.748 0.816 1.277 1.664 1.587 2.546 0.311 0.881 0.426 1.757 0.346 2.626-0.09 0.869-0.375 1.727-0.855 2.573-0.475 0.842-1.121 1.637-1.936 2.385zM226.746 64.593v0c0.414 0.452 0.837 0.824 1.268 1.117 0.436 0.288 0.89 0.522 1.363 0.703 0.469 0.176 0.963 0.306 1.483 0.39 0.515 0.079 1.058 0.124 1.628 0.134v0l3.036-2.783c-1.12-1.143-2.132-2.06-3.036-2.75-0.904-0.69-1.715-1.185-2.433-1.485-0.714-0.295-1.341-0.412-1.88-0.351-0.545 0.066-1.019 0.283-1.423 0.653v0c-0.383 0.351-0.654 0.717-0.811 1.097-0.167 0.379-0.243 0.756-0.226 1.129 0.017 0.373 0.116 0.743 0.298 1.11 0.183 0.357 0.427 0.703 0.733 1.036z" fill="#ffffff" data-fill-palette-color="primary"></path><path d="M236.937 82.03l14.333-15.04 1.303 2.409c0.136 0.252 0.186 0.49 0.148 0.715-0.043 0.228-0.134 0.417-0.272 0.568v0l-9.389 9.388c-0.363 0.31-0.712 0.609-1.049 0.897-0.342 0.291-0.693 0.568-1.051 0.83v0c0.438-0.116 0.88-0.222 1.327-0.32 0.444-0.089 0.905-0.183 1.382-0.282v0l13.25-2.418c0.202-0.033 0.399-0.011 0.593 0.066 0.191 0.086 0.345 0.238 0.462 0.454v0l0.713 1.319c0.124 0.229 0.171 0.449 0.143 0.662-0.038 0.21-0.126 0.39-0.265 0.541v0l-9.322 9.68c-0.332 0.339-0.664 0.663-0.997 0.972-0.342 0.306-0.675 0.608-0.999 0.904v0c0.407-0.144 0.842-0.285 1.305-0.422 0.461-0.128 0.896-0.235 1.305-0.32v0l13.028-2.661c0.213-0.04 0.424-0.014 0.634 0.078 0.203 0.095 0.365 0.254 0.485 0.476v0l1.241 2.295-20.426 3.777-1.308-2.418c-0.162-0.299-0.081-0.612 0.242-0.938v0l9.712-10.221c0.213-0.236 0.44-0.454 0.681-0.653 0.238-0.204 0.473-0.407 0.705-0.608v0c-0.295 0.084-0.595 0.174-0.899 0.27-0.307 0.09-0.618 0.16-0.933 0.209v0l-13.88 2.475c-0.453 0.086-0.774-0.044-0.96-0.39v0z" fill="#ffffff" data-fill-palette-color="primary"></path><path d="M268.591 101.995l1.087 3.294-18.766 6.197-1.088-3.294zM275.82 104.092v0c-0.323 0.107-0.645 0.139-0.967 0.099-0.314-0.037-0.618-0.129-0.913-0.278-0.286-0.144-0.536-0.339-0.751-0.584-0.221-0.243-0.383-0.523-0.487-0.839v0c-0.107-0.323-0.143-0.644-0.108-0.964 0.028-0.318 0.114-0.62 0.258-0.907 0.15-0.288 0.341-0.541 0.572-0.757 0.239-0.212 0.519-0.372 0.842-0.478v0c0.323-0.107 0.649-0.148 0.98-0.124 0.333 0.03 0.642 0.118 0.929 0.262 0.286 0.144 0.535 0.336 0.747 0.575 0.219 0.237 0.381 0.516 0.488 0.839v0c0.104 0.316 0.14 0.638 0.108 0.964-0.026 0.324-0.111 0.63-0.256 0.916-0.142 0.293-0.338 0.55-0.587 0.773-0.247 0.229-0.532 0.397-0.855 0.503z" fill="#ffffff" data-fill-palette-color="primary"></path><path d="M10.382 144.583c0-1.819 1.475-3.294 3.293-3.293 1.819 0 3.294 1.475 3.294 3.293 0 1.819-1.475 3.294-3.294 3.294-1.819 0-3.294-1.475-3.293-3.294z" fill="#ffffff" data-fill-palette-color="primary"></path><path d="M262.042 144.583c0-1.819 1.475-3.294 3.294-3.293 1.819 0 3.294 1.475 3.293 3.293 0 1.819-1.475 3.294-3.293 3.294-1.819 0-3.294-1.475-3.294-3.294z" fill="#ffffff" data-fill-palette-color="primary"></path></g><g id="text-1"><path d="M36.977 189.148l-1.856-0.284c-0.211-0.042-0.376-0.106-0.496-0.192-0.127-0.084-0.221-0.218-0.283-0.401v0c-0.066-0.196-0.044-0.456 0.065-0.781 0.109-0.325 0.213-0.725 0.314-1.202 0.102-0.47 0.158-1.016 0.167-1.638 0.009-0.622-0.12-1.331-0.387-2.126v0c-0.25-0.746-0.572-1.369-0.964-1.87-0.389-0.509-0.822-0.898-1.299-1.167-0.471-0.271-0.972-0.426-1.505-0.464-0.525-0.035-1.059 0.039-1.603 0.221v0c-0.689 0.231-1.201 0.589-1.537 1.075-0.34 0.494-0.578 1.073-0.714 1.737-0.136 0.664-0.203 1.386-0.201 2.165 0.004 0.786 0.003 1.591-0.002 2.415-0.005 0.824-0.046 1.643-0.124 2.457-0.078 0.814-0.264 1.579-0.558 2.296-0.294 0.717-0.735 1.361-1.324 1.931-0.587 0.577-1.389 1.035-2.406 1.377v0c-1.08 0.363-2.156 0.52-3.226 0.471-1.071-0.048-2.072-0.31-3.005-0.784-0.939-0.472-1.782-1.152-2.53-2.04-0.744-0.896-1.335-1.998-1.774-3.306v0c-0.534-1.592-0.731-3.143-0.591-4.652 0.134-1.507 0.538-2.89 1.212-4.15v0l1.907 0.435c0.156 0.046 0.301 0.121 0.433 0.224 0.133 0.103 0.227 0.237 0.283 0.401v0c0.081 0.24 0.043 0.558-0.112 0.955-0.155 0.397-0.31 0.877-0.465 1.442-0.153 0.571-0.248 1.229-0.287 1.973-0.036 0.75 0.104 1.599 0.422 2.547v0c0.267 0.796 0.615 1.467 1.045 2.012 0.423 0.547 0.905 0.969 1.447 1.264 0.536 0.298 1.12 0.468 1.752 0.509 0.626 0.043 1.277-0.049 1.953-0.276v0c0.746-0.25 1.299-0.622 1.661-1.116 0.366-0.502 0.614-1.081 0.745-1.737 0.138-0.658 0.202-1.379 0.192-2.163-0.014-0.775-0.028-1.572-0.043-2.389-0.016-0.824 0.012-1.639 0.087-2.444 0.072-0.811 0.262-1.575 0.57-2.29 0.315-0.717 0.784-1.37 1.409-1.959 0.627-0.583 1.484-1.057 2.571-1.422v0c0.872-0.293 1.772-0.408 2.699-0.347 0.93 0.068 1.818 0.318 2.666 0.75 0.846 0.426 1.614 1.05 2.305 1.873 0.697 0.82 1.251 1.844 1.663 3.07v0c0.462 1.377 0.666 2.708 0.612 3.991-0.056 1.277-0.352 2.48-0.888 3.609z" fill="#ffffff" data-fill-palette-color="primary"></path><path d="M38.156 201.9v0c0.642 1.183 1.025 2.355 1.148 3.517 0.126 1.168 0.005 2.28-0.361 3.336-0.358 1.059-0.954 2.042-1.788 2.95-0.837 0.917-1.888 1.719-3.153 2.406v0c-1.271 0.69-2.516 1.135-3.735 1.333-1.21 0.202-2.356 0.165-3.439-0.111-1.086-0.267-2.081-0.774-2.985-1.519-0.902-0.739-1.674-1.7-2.316-2.883v0c-0.639-1.177-1.025-2.348-1.157-3.512-0.129-1.159-0.011-2.269 0.353-3.331 0.355-1.065 0.943-2.055 1.765-2.972 0.831-0.914 1.882-1.716 3.152-2.405v0c1.265-0.687 2.51-1.132 3.735-1.334 1.222-0.193 2.376-0.149 3.462 0.133 1.089 0.273 2.087 0.778 2.995 1.514 0.911 0.742 1.686 1.701 2.324 2.878zM23.74 209.727v0c0.868 1.599 2.048 2.501 3.541 2.708 1.498 0.203 3.204-0.216 5.119-1.256v0c1.921-1.043 3.204-2.248 3.85-3.614 0.651-1.37 0.543-2.854-0.325-4.454v0c-0.439-0.808-0.956-1.433-1.553-1.875-0.605-0.445-1.277-0.725-2.014-0.84-0.732-0.118-1.532-0.07-2.402 0.144-0.866 0.22-1.777 0.589-2.731 1.108v0c-0.96 0.522-1.766 1.084-2.417 1.687-0.647 0.609-1.121 1.253-1.42 1.931-0.299 0.678-0.424 1.391-0.375 2.138 0.046 0.741 0.288 1.516 0.727 2.323z" fill="#ffffff" data-fill-palette-color="primary"></path><path d="M32.822 227.917l-1.971-2.583 12.419-9.48-1.046-1.766c-0.106-0.238-0.157-0.459-0.154-0.663 0-0.209 0.095-0.387 0.286-0.532v0l1.056-0.807 1.765 2.312 1.415-1.079c0.832-0.635 1.662-1.084 2.492-1.349 0.834-0.259 1.639-0.341 2.415-0.246 0.781 0.1 1.522 0.368 2.224 0.805 0.697 0.441 1.338 1.045 1.924 1.813v0c0.501 0.657 0.869 1.336 1.103 2.038v0l-1.321 0.92c-0.204 0.139-0.383 0.146-0.538 0.021-0.154-0.125-0.339-0.328-0.553-0.609v0l-0.34-0.445c-0.336-0.44-0.701-0.798-1.096-1.074-0.392-0.271-0.816-0.438-1.274-0.499-0.458-0.061-0.951 0.001-1.48 0.186-0.529 0.186-1.106 0.517-1.731 0.994v0l-1.335 1.019 3.227 4.228-1.868 1.425-3.16-4.14z" fill="#ffffff" data-fill-palette-color="primary"></path><path d="M43.955 241.004v0c-1.006-1.039-1.49-2.124-1.452-3.254 0.037-1.121 0.604-2.212 1.701-3.274v0l8.082-7.82-1.536-1.587c-0.134-0.139-0.205-0.298-0.212-0.477-0.011-0.175 0.069-0.345 0.242-0.513v0l0.927-0.896 2.365 1.898 4.602-3.409c0.148-0.115 0.309-0.165 0.483-0.148 0.174 0.017 0.333 0.1 0.477 0.248v0l1.133 1.171-4.548 4.4 3.663 3.786-1.688 1.634-3.663-3.786-7.924 7.667c-0.556 0.538-0.838 1.075-0.847 1.612-0.009 0.528 0.193 1.005 0.606 1.431v0c0.236 0.244 0.474 0.423 0.712 0.535 0.234 0.117 0.454 0.201 0.661 0.251 0.206 0.06 0.387 0.103 0.542 0.129 0.15 0.031 0.258 0.08 0.323 0.147v0c0.12 0.125 0.153 0.307 0.097 0.546v0l-0.453 1.745c-0.758-0.036-1.518-0.232-2.281-0.589-0.758-0.361-1.428-0.844-2.012-1.447z" fill="#ffffff" data-fill-palette-color="primary"></path><path d="M56.01 250.792l5.729-18.456 2.083 1.47c0.212 0.15 0.351 0.329 0.416 0.538 0.059 0.205 0.062 0.398 0.007 0.579v0l-3.94 11.706c-0.173 0.408-0.342 0.803-0.506 1.184-0.164 0.382-0.34 0.759-0.529 1.132v0c0.314-0.284 0.638-0.557 0.97-0.82 0.332-0.263 0.678-0.533 1.037-0.811v0l10.041-7.486c0.153-0.112 0.326-0.173 0.52-0.183 0.193-0.019 0.384 0.039 0.575 0.173v0l1.144 0.807c0.196 0.138 0.323 0.305 0.381 0.501 0.056 0.186 0.057 0.37 0.002 0.552v0l-3.76 11.918c-0.133 0.42-0.278 0.827-0.435 1.223-0.157 0.395-0.309 0.785-0.458 1.169v0c0.28-0.292 0.587-0.589 0.923-0.891 0.326-0.3 0.64-0.572 0.942-0.815v0l9.764-7.597c0.16-0.123 0.345-0.189 0.554-0.196 0.215-0.004 0.414 0.06 0.6 0.191v0l1.984 1.4-15.457 11.592-2.091-1.475c-0.256-0.181-0.314-0.474-0.174-0.881v0l3.862-12.531c0.085-0.282 0.184-0.555 0.296-0.819 0.111-0.273 0.222-0.54 0.335-0.803v0c-0.21 0.194-0.425 0.394-0.643 0.598-0.214 0.2-0.44 0.387-0.678 0.562v0l-10.54 7.795c-0.347 0.261-0.67 0.286-0.97 0.074v0z" fill="#ffffff" data-fill-palette-color="primary"></path><path d="M96.726 261.091l-4.863 10.702-1.311-0.596c-0.285-0.13-0.495-0.28-0.629-0.45-0.137-0.165-0.169-0.402-0.094-0.713v0l0.38-1.705c-0.622 0.193-1.214 0.352-1.777 0.478-0.562 0.125-1.122 0.189-1.679 0.192-0.566 0.006-1.135-0.055-1.707-0.183-0.571-0.128-1.176-0.337-1.812-0.626v0c-0.649-0.295-1.218-0.663-1.706-1.104-0.482-0.438-0.849-0.935-1.102-1.489-0.253-0.554-0.379-1.164-0.376-1.83 0.005-0.671 0.18-1.386 0.524-2.144v0c0.301-0.661 0.772-1.216 1.415-1.663 0.642-0.447 1.475-0.724 2.496-0.831 1.028-0.104 2.266-0.01 3.715 0.283 1.448 0.292 3.129 0.847 5.041 1.665v0l0.591-1.302c0.593-1.304 0.76-2.414 0.503-3.329-0.249-0.918-0.919-1.626-2.011-2.122v0c-0.716-0.325-1.361-0.509-1.935-0.55-0.574-0.041-1.091-0.031-1.552 0.031-0.46 0.062-0.859 0.126-1.196 0.192-0.344 0.063-0.643 0.037-0.897-0.078v0c-0.194-0.088-0.344-0.218-0.449-0.391-0.099-0.169-0.158-0.354-0.177-0.552v0l-0.102-1.178c1.327-0.473 2.629-0.687 3.904-0.641 1.269 0.042 2.553 0.359 3.851 0.949v0c0.934 0.425 1.695 0.957 2.283 1.597 0.587 0.64 1.001 1.348 1.242 2.123 0.247 0.778 0.321 1.613 0.223 2.506-0.101 0.898-0.365 1.818-0.793 2.759zM85.046 266.521v0c0.516 0.234 1.012 0.398 1.49 0.491 0.478 0.093 0.952 0.129 1.422 0.108 0.464-0.023 0.932-0.093 1.402-0.209 0.473-0.122 0.956-0.283 1.449-0.483v0l1.584-3.486c-1.372-0.572-2.572-0.986-3.598-1.239-1.03-0.263-1.904-0.393-2.622-0.391-0.721 0.009-1.3 0.138-1.735 0.387-0.444 0.252-0.771 0.609-0.981 1.07v0c-0.201 0.443-0.301 0.855-0.298 1.236-0.001 0.388 0.074 0.74 0.223 1.057 0.152 0.311 0.369 0.589 0.652 0.835 0.286 0.24 0.624 0.448 1.012 0.624z" fill="#ffffff" data-fill-palette-color="primary"></path><path d="M103.147 275.269l-3.107-0.876 4.992-17.693 1.779 0.502c0.34 0.096 0.556 0.226 0.648 0.391 0.092 0.164 0.116 0.41 0.073 0.737v0l-0.567 2.821c0.952-1.068 1.972-1.822 3.058-2.264 1.087-0.441 2.23-0.493 3.43-0.154v0c0.487 0.138 0.914 0.32 1.279 0.548 0.367 0.221 0.689 0.478 0.966 0.771v0l-1.049 2.208c-0.167 0.272-0.391 0.367-0.673 0.287v0c-0.16-0.045-0.394-0.174-0.701-0.384-0.303-0.203-0.759-0.391-1.369-0.563v0c-1.084-0.306-2.077-0.247-2.979 0.177-0.909 0.422-1.776 1.164-2.601 2.226v0z" fill="#ffffff" data-fill-palette-color="primary"></path><path d="M127.355 260.826v0c1.092 0.132 2.079 0.436 2.961 0.912 0.881 0.483 1.615 1.108 2.199 1.877 0.591 0.776 1.013 1.693 1.268 2.752 0.255 1.058 0.303 2.235 0.147 3.531v0c-0.062 0.509-0.155 0.84-0.281 0.993-0.126 0.153-0.341 0.21-0.646 0.174v0l-12.137-1.469c-0.12 1.16-0.087 2.185 0.102 3.073 0.189 0.882 0.499 1.641 0.932 2.278 0.434 0.63 0.981 1.129 1.641 1.498 0.668 0.363 1.432 0.596 2.292 0.7v0c0.807 0.098 1.513 0.089 2.118-0.026 0.605-0.115 1.132-0.256 1.581-0.422 0.442-0.161 0.817-0.317 1.124-0.468 0.301-0.158 0.554-0.225 0.76-0.201v0c0.265 0.032 0.457 0.159 0.578 0.383v0l0.761 1.28c-0.455 0.435-0.982 0.794-1.58 1.077-0.592 0.291-1.216 0.511-1.873 0.66-0.663 0.155-1.336 0.248-2.017 0.279-0.688 0.031-1.363 0.006-2.025-0.074v0c-1.257-0.152-2.392-0.504-3.406-1.057-1.014-0.552-1.858-1.289-2.532-2.209-0.675-0.914-1.153-2.006-1.436-3.275-0.29-1.264-0.34-2.683-0.15-4.258v0c0.154-1.27 0.493-2.434 1.017-3.491 0.524-1.058 1.203-1.949 2.035-2.674 0.832-0.718 1.805-1.245 2.92-1.58 1.108-0.336 2.324-0.424 3.647-0.263zM127.139 263.196v0c-1.548-0.187-2.82 0.112-3.814 0.898-1.001 0.785-1.704 1.959-2.108 3.52v0l9.924 1.202c0.09-0.748 0.07-1.441-0.06-2.082-0.13-0.647-0.366-1.219-0.709-1.717-0.343-0.498-0.783-0.904-1.323-1.217-0.539-0.314-1.176-0.515-1.91-0.604z" fill="#ffffff" data-fill-palette-color="primary"></path><path d="M147.932 253.908l15.905-1.949 0.348 2.838-12.393 1.518 1.051 8.583 10.032-1.229 0.334 2.729-10.031 1.229 1.079 8.81 12.393-1.518 0.349 2.848-15.905 1.948z" fill="#ffffff" data-fill-palette-color="primary"></path><path d="M178.29 274.463l-3.08 0.969-5.519-17.535 1.83-0.576c0.439-0.138 0.785-0.013 1.041 0.375v0l0.838 1.832c0.497-1.086 1.134-2.034 1.913-2.845 0.777-0.817 1.782-1.42 3.015-1.808v0c0.96-0.302 1.855-0.409 2.687-0.322 0.831 0.088 1.583 0.347 2.257 0.778 0.672 0.424 1.264 1.007 1.776 1.746 0.512 0.74 0.925 1.606 1.236 2.598v0l3.515 11.165-3.08 0.97-3.515-11.166c-0.418-1.329-1.044-2.263-1.878-2.804-0.834-0.541-1.874-0.615-3.12-0.223v0c-0.915 0.288-1.698 0.776-2.348 1.462-0.657 0.689-1.2 1.513-1.632 2.473v0z" fill="#ffffff" data-fill-palette-color="primary"></path><path d="M194.449 247.568v0c0.705-0.377 1.406-0.649 2.102-0.818 0.699-0.177 1.378-0.249 2.038-0.216v0l4.4-2.35 0.565 1.058c0.185 0.347 0.081 0.69-0.312 1.028v0l-1.706 1.24c0.735 0.499 1.33 1.175 1.786 2.027v0c0.421 0.788 0.651 1.586 0.69 2.396 0.04 0.81-0.085 1.587-0.375 2.331-0.296 0.747-0.748 1.442-1.357 2.085-0.609 0.643-1.357 1.201-2.244 1.675v0c-0.758 0.405-1.521 0.696-2.289 0.872v0c-0.228 0.394-0.364 0.761-0.408 1.102-0.044 0.341-0.004 0.629 0.122 0.864v0c0.204 0.382 0.511 0.588 0.92 0.619 0.418 0.033 0.907-0.042 1.465-0.227 0.555-0.191 1.166-0.449 1.83-0.774 0.662-0.331 1.345-0.651 2.05-0.959 0.701-0.314 1.409-0.587 2.124-0.817 0.715-0.231 1.399-0.351 2.052-0.36 0.653-0.009 1.26 0.139 1.823 0.443 0.557 0.307 1.035 0.834 1.434 1.58v0c0.371 0.694 0.557 1.459 0.558 2.297 0.002 0.838-0.186 1.682-0.562 2.533-0.382 0.854-0.962 1.685-1.739 2.493-0.777 0.808-1.757 1.528-2.938 2.159v0c-1.187 0.634-2.288 1.071-3.301 1.31-1.019 0.242-1.928 0.323-2.726 0.244-0.795-0.089-1.478-0.313-2.048-0.674-0.57-0.36-1.006-0.823-1.308-1.387v0c-0.427-0.799-0.537-1.613-0.33-2.441 0.204-0.834 0.662-1.653 1.374-2.457v0c-0.572 0.033-1.088-0.057-1.55-0.271-0.468-0.211-0.862-0.616-1.183-1.216v0c-0.122-0.229-0.207-0.494-0.254-0.794-0.053-0.297-0.057-0.616-0.012-0.956 0.048-0.335 0.141-0.684 0.28-1.045 0.13-0.364 0.32-0.723 0.57-1.076v0c-1.038-0.02-1.981-0.279-2.829-0.777-0.848-0.499-1.538-1.245-2.069-2.239v0c-0.421-0.788-0.651-1.586-0.69-2.396-0.046-0.807 0.084-1.582 0.388-2.327 0.305-0.745 0.768-1.441 1.388-2.09 0.62-0.649 1.377-1.212 2.271-1.689zM208.79 262.233v0c-0.217-0.406-0.503-0.672-0.858-0.8-0.361-0.124-0.767-0.149-1.219-0.074-0.454 0.069-0.951 0.206-1.491 0.412-0.534 0.202-1.084 0.439-1.649 0.71-0.574 0.269-1.157 0.543-1.749 0.821-0.595 0.272-1.176 0.507-1.743 0.705v0c-0.452 0.611-0.757 1.228-0.916 1.849-0.156 0.612-0.081 1.207 0.227 1.783v0c0.195 0.364 0.471 0.655 0.829 0.872 0.349 0.214 0.778 0.332 1.288 0.354 0.505 0.025 1.084-0.05 1.738-0.226 0.654-0.176 1.375-0.474 2.163-0.894v0c0.77-0.411 1.423-0.851 1.959-1.319 0.53-0.465 0.939-0.936 1.227-1.415 0.279-0.482 0.439-0.96 0.48-1.435 0.035-0.472-0.061-0.92-0.286-1.343zM199.023 256.129v0c0.576-0.308 1.042-0.659 1.398-1.053 0.362-0.397 0.616-0.82 0.762-1.269 0.14-0.445 0.18-0.908 0.119-1.389-0.067-0.478-0.229-0.958-0.486-1.44v0c-0.531-0.993-1.253-1.624-2.167-1.892-0.916-0.258-1.951-0.08-3.102 0.536v0c-1.14 0.609-1.858 1.367-2.153 2.272-0.286 0.908-0.163 1.859 0.368 2.852v0c0.258 0.482 0.569 0.882 0.936 1.2 0.366 0.318 0.776 0.541 1.23 0.669 0.454 0.128 0.94 0.155 1.46 0.081 0.526-0.077 1.071-0.266 1.635-0.567z" fill="#ffffff" data-fill-palette-color="primary"></path><path d="M206.578 240.761l2.653-1.841 10.48 15.104-2.653 1.841zM206.543 233.765v0c0.179 0.257 0.294 0.534 0.345 0.831 0.052 0.297 0.049 0.591-0.008 0.882-0.054 0.297-0.159 0.572-0.315 0.827-0.158 0.264-0.365 0.485-0.623 0.663v0c-0.257 0.179-0.534 0.294-0.831 0.346-0.293 0.057-0.588 0.059-0.884 0.005-0.293-0.048-0.567-0.15-0.821-0.307-0.254-0.156-0.471-0.363-0.65-0.62v0c-0.179-0.257-0.3-0.538-0.365-0.841-0.065-0.304-0.068-0.601-0.011-0.893 0.054-0.297 0.159-0.572 0.315-0.827 0.152-0.26 0.357-0.479 0.615-0.657v0c0.257-0.179 0.537-0.296 0.839-0.351 0.293-0.057 0.588-0.059 0.884-0.006 0.293 0.048 0.573 0.154 0.841 0.317 0.267 0.163 0.49 0.374 0.669 0.631z" fill="#ffffff" data-fill-palette-color="primary"></path><path d="M229.218 245.974l-2.381 2.18-12.413-13.559 1.415-1.296c0.339-0.31 0.706-0.344 1.101-0.1v0l1.535 1.306c-0.009-1.194 0.169-2.323 0.531-3.387 0.359-1.069 1.015-2.04 1.969-2.913v0c0.742-0.679 1.509-1.155 2.298-1.427 0.79-0.272 1.582-0.355 2.375-0.249 0.788 0.101 1.571 0.378 2.347 0.833 0.777 0.454 1.517 1.065 2.219 1.831v0l7.904 8.634-2.382 2.18-7.904-8.634c-0.94-1.027-1.903-1.61-2.887-1.748-0.984-0.138-1.958 0.234-2.922 1.117v0c-0.708 0.648-1.211 1.421-1.51 2.317-0.304 0.902-0.449 1.879-0.434 2.932v0z" fill="#ffffff" data-fill-palette-color="primary"></path><path d="M233.213 213.905v0c0.663-0.877 1.422-1.578 2.277-2.101 0.86-0.519 1.77-0.839 2.728-0.958 0.968-0.12 1.973-0.025 3.016 0.287 1.042 0.312 2.085 0.861 3.127 1.649v0c0.409 0.309 0.648 0.557 0.717 0.742 0.069 0.186 0.011 0.401-0.174 0.645v0l-7.371 9.754c0.942 0.687 1.845 1.173 2.708 1.457 0.857 0.28 1.67 0.393 2.437 0.339 0.763-0.059 1.469-0.281 2.12-0.666 0.649-0.395 1.235-0.938 1.757-1.629v0c0.49-0.649 0.838-1.263 1.043-1.843 0.205-0.58 0.348-1.107 0.429-1.58 0.083-0.464 0.136-0.866 0.161-1.207 0.015-0.34 0.084-0.592 0.208-0.757v0c0.161-0.213 0.368-0.315 0.621-0.308v0l1.49-0.014c0.147 0.612 0.193 1.248 0.137 1.907-0.046 0.658-0.17 1.308-0.371 1.95-0.2 0.651-0.457 1.279-0.773 1.885-0.319 0.611-0.68 1.182-1.082 1.713v0c-0.763 1.01-1.639 1.815-2.626 2.414-0.987 0.599-2.048 0.958-3.182 1.078-1.129 0.124-2.314-0.011-3.554-0.405-1.238-0.384-2.49-1.055-3.755-2.011v0c-1.021-0.771-1.857-1.65-2.507-2.634-0.651-0.985-1.08-2.019-1.289-3.104-0.203-1.08-0.169-2.187 0.103-3.318 0.267-1.127 0.802-2.222 1.605-3.285zM235.153 215.283v0c-0.94 1.244-1.321 2.494-1.141 3.749 0.175 1.26 0.837 2.458 1.984 3.592v0l6.027-7.975c-0.601-0.454-1.211-0.785-1.83-0.995-0.624-0.213-1.238-0.296-1.84-0.25-0.603 0.046-1.175 0.223-1.717 0.531-0.542 0.309-1.036 0.758-1.483 1.348z" fill="#ffffff" data-fill-palette-color="primary"></path><path d="M243.428 197.124v0c0.506-0.976 1.136-1.794 1.89-2.454 0.761-0.657 1.603-1.125 2.528-1.403 0.934-0.282 1.941-0.357 3.021-0.225 1.08 0.132 2.2 0.498 3.36 1.098v0c0.456 0.236 0.733 0.44 0.832 0.611 0.099 0.171 0.078 0.393-0.063 0.665v0l-5.623 10.856c1.045 0.519 2.016 0.846 2.914 0.981 0.892 0.132 1.712 0.106 2.46-0.077 0.742-0.186 1.401-0.524 1.978-1.013 0.573-0.499 1.059-1.132 1.458-1.902v0c0.374-0.722 0.613-1.386 0.717-1.993 0.104-0.607 0.157-1.15 0.157-1.63 0.004-0.471-0.011-0.876-0.045-1.216-0.043-0.337-0.017-0.598 0.078-0.782v0c0.123-0.237 0.309-0.373 0.56-0.407v0l1.466-0.266c0.248 0.579 0.4 1.198 0.456 1.858 0.065 0.657 0.053 1.318-0.037 1.985-0.087 0.675-0.235 1.338-0.444 1.987-0.212 0.656-0.471 1.279-0.778 1.871v0c-0.582 1.124-1.31 2.065-2.182 2.822-0.872 0.757-1.857 1.289-2.956 1.598-1.092 0.312-2.283 0.379-3.57 0.2-1.285-0.17-2.632-0.62-4.041-1.35v0c-1.136-0.589-2.108-1.313-2.915-2.175-0.807-0.861-1.405-1.808-1.793-2.842-0.382-1.031-0.534-2.127-0.458-3.288 0.073-1.155 0.416-2.325 1.03-3.508zM245.572 198.157v0c-0.717 1.385-0.882 2.68-0.493 3.887 0.385 1.213 1.239 2.281 2.56 3.206v0l4.598-8.876c-0.669-0.346-1.326-0.57-1.971-0.672-0.651-0.105-1.27-0.084-1.856 0.063-0.586 0.147-1.121 0.418-1.604 0.813-0.483 0.395-0.894 0.922-1.234 1.579z" fill="#ffffff" data-fill-palette-color="primary"></path><path d="M267.284 188.604l-1.042 3.057-17.4-5.933 0.597-1.75c0.114-0.334 0.256-0.543 0.425-0.627 0.169-0.083 0.416-0.094 0.74-0.033v0l2.786 0.718c-1.015-1.008-1.714-2.067-2.096-3.175-0.382-1.109-0.372-2.253 0.03-3.433v0c0.163-0.479 0.369-0.895 0.615-1.248 0.241-0.355 0.515-0.662 0.822-0.924v0l2.148 1.166c0.262 0.181 0.346 0.41 0.251 0.687v0c-0.054 0.158-0.194 0.384-0.421 0.68-0.219 0.291-0.431 0.737-0.636 1.336v0c-0.363 1.066-0.358 2.061 0.018 2.985 0.373 0.93 1.067 1.836 2.084 2.717v0z" fill="#ffffff" data-fill-palette-color="primary"></path></g></svg></g></svg></g></svg></g></svg></g><defs></defs></svg><rect width="279.72" height="279.72" fill="none" stroke="none" visibility="hidden"></rect></g></svg></g></svg>