<svg xmlns="http://www.w3.org/2000/svg" version="1.1" xmlns:xlink="http://www.w3.org/1999/xlink" xmlns:svgjs="http://svgjs.dev/svgjs" width="1500" height="1205" viewBox="0 0 1500 1205"><g transform="matrix(1,0,0,1,0,0.3984580210021704)"><svg viewBox="0 0 448 360" data-background-color="#ffffff" preserveAspectRatio="xMidYMid meet" height="1205" width="1500" xmlns="http://www.w3.org/2000/svg" xmlns:xlink="http://www.w3.org/1999/xlink"><g id="tight-bounds" transform="matrix(1,0,0,1,0,-0.11904140046539169)"><svg viewBox="0 0 448 360" height="360" width="448"><g><svg></svg></g><g><svg viewBox="0 0 448 360" height="360" width="448"><g><path transform="translate(36.9151,-7.08178) scale(0.00624,0.00624)" d="M25167 8301c221 0 400 179 400 400 0 221-179 400-400 400h-3824l-2753 2753c-156 156-409 156-566 0-156-156-156-409 0-566l2188-2188h-6475c-1847 0-3071 431-3819 1301-760 885-1068 2254-1068 4110 0 11 0 22-1 33l34 5884 2356-2356c156-156 409-156 566 0 156 156 156 409 0 566l-2915 2915c33 5746 31 11443-2 17189 4087 4041 8117 8068 12157 12154h4070c221 0 400 179 400 400 0 221-179 400-400 400h-3279l4160 4208 1-1c1313 1313 2498 2062 3660 2151 1146 87 2316-474 3622-1779l4579-4579h-3323c-221 0-400-179-400-400 0-221 179-400 400-400h4123l2666-2666c156-156 409-156 566 0 156 156 156 409 0 566l-2101 2101h6475c1847 0 3071-431 3819-1301 760-885 1068-2254 1068-4110h2l-34-5917-2568 2568c-156 156-409 156-566 0-156-156-156-409 0-566l3127-3127c-33-5746-31-11443 2-17189-4087-4041-8117-8068-12157-12154h-4193c-221 0-400-179-400-400 0-221 179-400 400-400h3402l-4141-4189c-7-6-13-12-20-18-1313-1313-2498-2062-3660-2151-1146-87-2316 474-3622 1779l-4579 4579h3024zM13737 8301h7275l5144-5144c1483-1483 2856-2116 4247-2010 1374 104 2719 934 4167 2382 8 8 15 15 22 23l4695 4749h6977c2096 0 3515 524 4425 1583 898 1045 1261 2582 1261 4629 0 13-1 25-2 37l-36 6373 4559 4508 1-1c1448 1448 2278 2792 2382 4167 106 1391-528 2764-2010 4247l-4934 4934 38 6710h2c0 2047-364 3584-1261 4629-910 1059-2329 1583-4425 1583h-7275l-5144 5144c-1483 1483-2856 2116-4247 2010-1374-104-2719-934-4167-2382l1-1-4718-4772h-6977c-2096 0-3515-524-4425-1583-898-1045-1261-2582-1261-4629h2l37-6410-4537-4485c-8-7-16-14-23-22-1448-1448-2278-2792-2382-4167-106-1391 528-2764 2010-4247l4934-4934-38-6672c-1-12-2-25-2-37 0-2047 364-3584 1261-4629 910-1059 2329-1583 4425-1583zM8141 30000l-44-7653-4374 4374c-1305 1305-1866 2476-1779 3622 88 1162 838 2348 2151 3660 6 6 13 13 18 20l3983 3937 45-7961zM8882 39860l-32 5627h2c0 1857 308 3226 1068 4110 748 871 1972 1301 3819 1301h6186l-5380-5442-5662-5597zM46264 9101h-6186l5380 5442 5662 5597 32-5594c-1-11-1-22-1-33 0-1857-308-3226-1068-4110-748-871-1972-1301-3819-1301zM51906 22039l-45 7961 44 7653 4374-4374c1305-1305 1866-2476 1779-3622-88-1163-838-2348-2151-3660l1-1-4002-3956z" fill="#7a26c1" fill-rule="nonzero" stroke="none" stroke-width="1" stroke-linecap="butt" stroke-linejoin="miter" stroke-miterlimit="10" stroke-dasharray="" stroke-dashoffset="0" font-family="none" font-weight="none" font-size="none" text-anchor="none" style="mix-blend-mode: normal" data-fill-palette-color="tertiary"></path></g><g transform="matrix(1,0,0,1,134,90)"><svg viewBox="0 0 180 180" height="180" width="180"><g><svg viewBox="0 0 180 180" height="180" width="180"><g><svg viewBox="0 0 180 180" height="180" width="180"><g id="textblocktransform"><svg viewBox="0 0 180 180" height="180" width="180" id="textblock"><g><svg viewBox="0 0 180 180" height="180" width="180"><g transform="matrix(1,0,0,1,58.18019484660536,58.20551250886433)"><svg viewBox="0 0 63.63961030678929 63.58897498227133" height="63.58897498227133" width="63.63961030678929"><g id="icon-0"><svg xmlns="http://www.w3.org/2000/svg" xmlns:xlink="http://www.w3.org/1999/xlink" version="1.1" x="0" y="0" viewBox="26.001000000000005 26.184 459.99699999999996 459.631" style="enable-background:new 0 0 512 512;" xml:space="preserve" height="63.58897498227133" width="63.63961030678929" class="icon-xg-0" data-fill-palette-color="accent" id="xg-0"><g fill="#6936f5" data-fill-palette-color="accent"><g fill="#6936f5" data-fill-palette-color="accent"><path d="M112.771 227.799H78.802v18.282h33.969V227.799zM112.771 253.589H78.802v18.282h33.969V253.589zM326.043 222.092h-61.862v18.281h18.4c0.186 0 0.368 0 0.52 0h27.04 0.092 15.811V222.092zM375.854 247.882h-45.965-0.091-15.811v18.28h38.303c0.183-0.029 0.365-0.029 0.552 0h23.012V247.882zM71.292 275.715v-0.091-25.698-0.092-0.09-25.576-0.123-0.091-25.575-0.092-0.123-25.575-0.091-0.093-25.606-0.091-0.091V121.01v-0.092-0.091V95.129v-0.092V74.65c0-2.045 1.681-3.754 3.755-3.754h361.022c2.073 0 3.751 1.709 3.751 3.754v230.854c0 2.074-1.678 3.754-3.751 3.754H75.047c-2.074 0-3.755-1.68-3.755-3.754V275.715zM449.925 61.008c-3.419-3.388-8.118-5.523-13.276-5.523H75.32c-5.155 0-9.858 2.105-13.245 5.523-3.418 3.418-5.524 8.118-5.524 13.276v260.152c0 5.157 2.105 9.858 5.524 13.276 3.387 3.387 8.089 5.523 13.245 5.523h361.328c5.158 0 9.857-2.137 13.276-5.523 3.387-3.418 5.492-8.119 5.492-13.276V74.284c0-5.067-2.015-9.706-5.31-13.094L449.925 61.008zM299.367 360.744h-86.738l-17.333 65.862h121.408L299.367 360.744zM375.762 434.083H190.442h-0.091H136.21v10.378h239.551V434.083zM194.198 164.195h69.4c2.046 0 3.756 1.679 3.756 3.754v25.789c0 2.076-1.71 3.755-3.756 3.755h-46.725v3.724c0 2.715-2.899 4.639-5.401 3.387-1.19-0.487-2.106-1.952-2.106-3.387v-3.724h-15.168c-2.046 0-3.755-1.679-3.755-3.755v-25.789C190.442 165.874 192.152 164.195 194.198 164.195zM333.549 240.373h46.056c2.077 0 3.755 1.68 3.755 3.756v25.788c0 2.075-1.678 3.755-3.755 3.755h-23.285v3.723c0 2.717-2.899 4.639-5.401 3.387-1.189-0.488-2.105-1.953-2.105-3.387v-3.723h-38.58c-2.074 0-3.752-1.68-3.752-3.755v-22.035h-19.898v3.753c0 2.717-2.899 4.609-5.373 3.357-1.19-0.457-2.138-1.953-2.138-3.357v-3.753h-18.646c-2.073 0-3.754-1.68-3.754-3.753v-25.79c0-2.076 1.681-3.755 3.754-3.755h69.373c2.074 0 3.751 1.679 3.751 3.755V240.373zM155.407 91.375h69.4c2.046 0 3.755 1.709 3.755 3.754v25.789c0 2.076-1.709 3.754-3.755 3.754h-7.935v3.754c0 2.717-2.899 4.609-5.401 3.357-1.19-0.457-2.106-1.952-2.106-3.357v-3.754h-53.958c-2.046 0-3.755-1.678-3.755-3.754V95.129C151.652 93.084 153.361 91.375 155.407 91.375zM78.802 91.375h37.72c2.078 0 3.755 1.709 3.755 3.754v25.698 0.091 0.092 25.607 0.091 0.091 25.606 0.093 0.091 25.575 0.123 0.092 25.575 0.091 0.123 25.576 0.09 0.092 25.698c0 2.076-1.678 3.753-3.755 3.753h-37.72v22.402h353.512V78.404H78.802V91.375zM112.771 98.883H78.802v18.282h33.969V98.883zM112.771 124.672H78.802v18.281h33.969V124.672zM112.771 150.461H78.802v18.282h33.969V150.461zM112.771 176.251H78.802v18.28h33.969V176.251zM259.847 171.703h-61.897v18.282h14.926c0.151-0.03 0.337-0.03 0.519 0h46.452V171.703zM221.056 98.883h-61.897v18.282h53.717c0.151 0 0.337 0 0.519 0h7.662V98.883zM209.366 158.428c0 1.404 0.916 2.898 2.106 3.357 2.502 1.251 5.401-0.641 5.401-3.357v-7.508c0-1.404-0.916-2.899-2.105-3.357-2.502-1.251-5.401 0.641-5.401 3.357V158.428zM209.366 231.218c0 1.435 0.916 2.899 2.106 3.388 2.502 1.251 5.401-0.672 5.401-3.388v-7.478c0-1.434-0.916-2.899-2.105-3.387-2.502-1.252-5.401 0.67-5.401 3.387V231.218zM209.366 261.219c0 1.435 0.916 2.899 2.106 3.387 2.502 1.252 5.401-0.67 5.401-3.387v-7.508c0-1.404-0.916-2.898-2.105-3.357-2.502-1.25-5.401 0.641-5.401 3.357V261.219zM139.657 141.55c0 1.435 0.916 2.899 2.105 3.388 2.502 1.251 5.373-0.672 5.373-3.388v-7.478c0-1.434-0.916-2.898-2.105-3.387-2.502-1.252-5.373 0.67-5.373 3.387V141.55zM139.657 171.551c0 1.435 0.916 2.9 2.105 3.388 2.502 1.251 5.373-0.671 5.373-3.388v-7.478c0-1.435-0.916-2.899-2.105-3.387-2.502-1.251-5.373 0.671-5.373 3.387V171.551zM139.657 201.553c0 1.434 0.916 2.898 2.105 3.387 2.502 1.252 5.373-0.67 5.373-3.387v-7.509c0-1.403-0.916-2.868-2.105-3.356-2.502-1.252-5.373 0.671-5.373 3.356V201.553zM139.657 231.554c0 1.403 0.916 2.899 2.105 3.356 2.502 1.252 5.373-0.641 5.373-3.356v-7.509c0-1.404-0.916-2.898-2.105-3.356-2.502-1.251-5.373 0.64-5.373 3.356V231.554zM139.657 261.555c0 1.404 0.916 2.898 2.105 3.357 2.502 1.25 5.373-0.641 5.373-3.357v-7.509c0-1.403-0.916-2.898-2.105-3.356-2.502-1.252-5.373 0.641-5.373 3.356V261.555zM147.135 104.071c0-1.435-0.916-2.899-2.105-3.388-2.502-1.221-5.373 0.671-5.373 3.388v7.509c0 1.403 0.916 2.898 2.105 3.356 2.502 1.251 5.373-0.641 5.373-3.356V104.071zM348.813 141.55c0 1.435 0.916 2.899 2.105 3.388 2.502 1.251 5.401-0.672 5.401-3.388v-7.478c0-1.434-0.948-2.898-2.106-3.387-2.502-1.252-5.4 0.67-5.4 3.387V141.55zM348.813 171.551c0 1.435 0.916 2.9 2.105 3.388 2.502 1.251 5.401-0.671 5.401-3.388v-7.478c0-1.435-0.948-2.899-2.106-3.387-2.502-1.251-5.4 0.671-5.4 3.387V171.551zM348.813 201.553c0 1.404 0.916 2.898 2.105 3.357 2.502 1.25 5.401-0.641 5.401-3.357v-7.509c0-1.403-0.948-2.868-2.106-3.356-2.502-1.252-5.4 0.671-5.4 3.356V201.553zM348.813 231.554c0 1.403 0.916 2.899 2.105 3.356 2.502 1.252 5.401-0.641 5.401-3.356v-7.509c0-1.404-0.948-2.898-2.106-3.356-2.502-1.251-5.4 0.64-5.4 3.356V231.554zM356.319 104.071c0-1.435-0.948-2.899-2.106-3.388-2.502-1.221-5.4 0.671-5.4 3.388v7.509c0 1.403 0.916 2.898 2.105 3.356 2.502 1.251 5.401-0.641 5.401-3.356V104.071zM279.071 141.55c0 1.435 0.947 2.899 2.138 3.388 2.474 1.251 5.373-0.672 5.373-3.388v-7.478c0-1.434-0.916-2.898-2.106-3.387-2.502-1.252-5.404 0.67-5.404 3.387V141.55zM279.071 171.551c0 1.435 0.947 2.9 2.138 3.388 2.474 1.251 5.373-0.671 5.373-3.388v-7.478c0-1.435-0.916-2.899-2.106-3.387-2.502-1.251-5.404 0.671-5.404 3.387V171.551zM279.071 201.553c0 1.434 0.947 2.898 2.138 3.387 2.474 1.252 5.373-0.67 5.373-3.387v-7.509c0-1.403-0.916-2.868-2.106-3.356-2.502-1.252-5.404 0.671-5.404 3.356V201.553zM279.071 277.516c0 1.436 0.947 2.9 2.138 3.389 2.474 1.221 5.373-0.672 5.373-3.389v-3.387c0-1.436-0.916-2.899-2.106-3.389-2.502-1.25-5.404 0.673-5.404 3.389V277.516zM286.582 104.071c0-1.435-0.916-2.899-2.106-3.388-2.502-1.221-5.404 0.671-5.404 3.388v7.509c0 1.403 0.947 2.898 2.138 3.356 2.474 1.251 5.373-0.641 5.373-3.356V104.071zM50.631 468.938c-2.046 0-3.755-1.68-3.755-3.755s1.709-3.754 3.755-3.754h277.58c2.043 0 3.752 1.679 3.752 3.754s-1.709 3.755-3.752 3.755H50.631zM213.181 485.815c-2.074 0-3.755-1.679-3.755-3.754s1.681-3.754 3.755-3.754h192.061c2.078 0 3.756 1.679 3.756 3.754s-1.678 3.754-3.756 3.754H213.181zM424.898 485.815c-2.078 0-3.756-1.679-3.756-3.754s1.678-3.754 3.756-3.754h24.019c2.043 0 3.752 1.679 3.752 3.754s-1.709 3.754-3.752 3.754H424.898zM39.706 485.297c-2.078 0-3.755-1.679-3.755-3.755 0-2.044 1.678-3.753 3.755-3.753h91.008c2.078 0 3.755 1.709 3.755 3.753 0 2.076-1.678 3.755-3.755 3.755H39.706zM33.508 166.516c0 2.075-1.709 3.754-3.752 3.754-2.078 0-3.755-1.679-3.755-3.754V55.025c0-7.904 3.236-15.107 8.454-20.356 5.25-5.249 12.452-8.484 20.387-8.484h64.063c2.074 0 3.752 1.679 3.752 3.753 0 2.076-1.678 3.755-3.752 3.755H54.842c-5.889 0-11.23 2.411-15.077 6.257-3.875 3.876-6.257 9.217-6.257 15.076V166.516zM457.157 33.692c-2.077 0-3.755-1.679-3.755-3.755 0-2.074 1.678-3.753 3.755-3.753 7.936 0 15.137 3.266 20.355 8.484 5.219 5.22 8.486 12.422 8.486 20.356v47.123c0 2.075-1.71 3.754-3.756 3.754-2.074 0-3.751-1.679-3.751-3.754V55.025c0-5.859-2.411-11.2-6.289-15.046C468.356 36.104 463.019 33.692 457.157 33.692zM112.771 202.041H78.802v18.28h33.969V202.041z" fill-rule="evenodd" clip-rule="evenodd" fill="#6936f5" data-fill-palette-color="accent"></path></g></g></svg></g></svg></g><g id="text-0"><path d="M15.475 63.949l-1.988 6.485-11.488-3.523 1.974-6.435 1.059 0.325-1.588 5.179 4.012 1.231 1.242-4.052 1.021 0.313-1.243 4.052 4.356 1.335 1.603-5.228z" fill="#7a26c1" data-fill-palette-color="primary"></path><path d="M10.292 54.648c0.234-0.525 0.558-0.964 0.971-1.319 0.41-0.349 0.884-0.561 1.419-0.636 0.536-0.075 1.088 0.014 1.656 0.268v0l5.041 2.252-0.49 1.096-4.553-2.034c-1.493-0.667-2.536-0.335-3.131 0.995v0c-0.343 0.768-0.326 1.469 0.05 2.101 0.37 0.63 1.018 1.151 1.942 1.565v0l3.767 1.682-0.49 1.096-7.532-3.365 0.489-1.096 1.256 0.561c-0.367-0.471-0.586-0.977-0.659-1.519-0.073-0.542 0.015-1.091 0.264-1.647z" fill="#7a26c1" data-fill-palette-color="primary"></path><path d="M17.264 42.838l0.632-1.021 6.745 4.174c0.628 0.389 1.11 0.864 1.446 1.426 0.332 0.568 0.493 1.174 0.48 1.817-0.009 0.638-0.2 1.26-0.575 1.865v0l-1.797 2.905-0.925-0.572 1.798-2.905c0.378-0.611 0.465-1.245 0.26-1.903-0.199-0.654-0.638-1.191-1.319-1.612v0l-0.768-0.475c0.225 0.533 0.321 1.08 0.289 1.638-0.042 0.561-0.216 1.089-0.522 1.584v0c-0.418 0.675-0.947 1.18-1.588 1.515-0.647 0.331-1.348 0.469-2.102 0.413-0.757-0.05-1.502-0.302-2.235-0.756v0c-0.715-0.443-1.264-0.987-1.645-1.633-0.381-0.646-0.569-1.329-0.564-2.051 0.004-0.722 0.213-1.417 0.626-2.085v0c0.317-0.512 0.717-0.912 1.201-1.2 0.49-0.284 1.026-0.443 1.61-0.476v0zM22.062 49.222c0.299-0.483 0.444-0.984 0.436-1.504-0.008-0.52-0.163-1.018-0.464-1.494-0.301-0.476-0.722-0.881-1.262-1.215v0c-0.541-0.335-1.089-0.529-1.643-0.583-0.56-0.057-1.077 0.025-1.552 0.247-0.469 0.225-0.853 0.578-1.152 1.061v0c-0.292 0.471-0.431 0.964-0.419 1.478 0.014 0.523 0.168 1.021 0.463 1.493 0.295 0.472 0.71 0.874 1.245 1.205v0c0.553 0.342 1.109 0.541 1.669 0.599 0.56 0.057 1.074-0.027 1.544-0.252 0.465-0.219 0.844-0.564 1.135-1.035z" fill="#7a26c1" data-fill-palette-color="primary"></path><path d="M27.832 42.298l-0.726 0.956-6.571-4.987 0.726-0.956zM19.619 36.825c-0.161 0.213-0.374 0.334-0.638 0.366-0.259 0.035-0.494-0.027-0.707-0.189v0c-0.207-0.157-0.328-0.365-0.364-0.624-0.035-0.259 0.027-0.494 0.189-0.707v0c0.157-0.207 0.365-0.328 0.624-0.363 0.263-0.041 0.501 0.019 0.713 0.18v0c0.207 0.157 0.326 0.368 0.358 0.632 0.041 0.263-0.017 0.498-0.174 0.705z" fill="#7a26c1" data-fill-palette-color="primary"></path><path d="M26.64 30.884c0.392-0.42 0.841-0.73 1.347-0.931 0.501-0.196 1.018-0.243 1.549-0.14 0.531 0.103 1.024 0.367 1.479 0.791v0l4.034 3.768-0.819 0.878-3.645-3.404c-1.195-1.116-2.289-1.142-3.284-0.077v0c-0.574 0.615-0.786 1.283-0.635 2.004 0.145 0.716 0.588 1.42 1.327 2.111v0l3.015 2.815-0.819 0.877-6.029-5.631 0.819-0.877 1.005 0.938c-0.193-0.565-0.236-1.115-0.129-1.65 0.108-0.536 0.369-1.027 0.785-1.472z" fill="#7a26c1" data-fill-palette-color="primary"></path><path d="M34.646 23.606c0.572-0.468 1.205-0.753 1.9-0.853 0.69-0.097 1.367-0.01 2.03 0.26 0.663 0.27 1.24 0.704 1.73 1.302v0c0.143 0.175 0.246 0.311 0.309 0.41v0l-5.247 4.298c0.575 0.626 1.246 1.009 2.015 1.148 0.773 0.145 1.496-0.058 2.168-0.608v0c0.545-0.446 0.913-0.92 1.104-1.422 0.195-0.496 0.252-1.015 0.169-1.558v0l1.141-0.112c0.084 0.718-0.009 1.414-0.28 2.086-0.275 0.668-0.749 1.277-1.421 1.828v0c-0.619 0.507-1.287 0.815-2.003 0.923-0.72 0.103-1.427 0.006-2.122-0.291-0.7-0.293-1.319-0.768-1.856-1.424v0c-0.537-0.656-0.881-1.352-1.032-2.086-0.155-0.74-0.113-1.45 0.125-2.131 0.238-0.681 0.661-1.271 1.27-1.77zM34.8 28.215l4.278-3.504c-0.632-0.588-1.261-0.903-1.889-0.947-0.628-0.043-1.246 0.185-1.854 0.684v0c-0.593 0.485-0.921 1.073-0.985 1.761-0.068 0.683 0.082 1.352 0.45 2.006z" fill="#7a26c1" data-fill-palette-color="primary"></path><path d="M43.575 17.286c0.626-0.393 1.29-0.596 1.992-0.61 0.697-0.01 1.357 0.161 1.982 0.512 0.624 0.351 1.142 0.854 1.554 1.508v0c0.12 0.191 0.205 0.34 0.255 0.445v0l-5.743 3.609c0.492 0.693 1.11 1.156 1.856 1.391 0.749 0.24 1.491 0.129 2.227-0.333v0c0.597-0.375 1.021-0.799 1.272-1.272 0.256-0.468 0.377-0.976 0.363-1.525v0l1.147 0.031c-0.006 0.723-0.186 1.401-0.539 2.035-0.357 0.628-0.903 1.173-1.639 1.636v0c-0.678 0.426-1.378 0.648-2.101 0.666-0.727 0.013-1.417-0.172-2.069-0.554-0.658-0.378-1.212-0.927-1.664-1.645v0c-0.451-0.718-0.706-1.451-0.764-2.198-0.061-0.753 0.069-1.453 0.39-2.099 0.321-0.646 0.815-1.178 1.481-1.597zM43.152 21.878l4.683-2.943c-0.553-0.662-1.139-1.054-1.756-1.175-0.617-0.121-1.259 0.028-1.925 0.447v0c-0.649 0.408-1.048 0.949-1.197 1.624-0.153 0.67-0.088 1.352 0.195 2.047z" fill="#7a26c1" data-fill-palette-color="primary"></path><path d="M53.551 11.868c0.252-0.123 0.513-0.205 0.782-0.245v0l0.478 0.977c-0.272 0.004-0.541 0.07-0.804 0.199v0c-0.455 0.222-0.814 0.554-1.078 0.996-0.267 0.45-0.4 0.972-0.399 1.566-0.005 0.597 0.152 1.22 0.47 1.872v0l1.736 3.548-1.079 0.528-3.625-7.411 1.079-0.527 0.73 1.493c0.012-0.691 0.166-1.296 0.461-1.813 0.286-0.521 0.702-0.915 1.249-1.183z" fill="#7a26c1" data-fill-palette-color="primary"></path><path d="M73.04 13.094l1.95-11.253 1.441-0.328 2.67 11.715-1.271 0.29-2.134-9.364-1.777 10.255-1.201 0.274-5.879-8.479 2.128 9.334-1.291 0.294-2.67-11.715 1.581-0.36z" fill="#7a26c1" data-fill-palette-color="primary"></path><path d="M88.074 4.46l1.198-0.068 0.467 8.237-1.198 0.068-0.069-1.22c-0.308 0.49-0.7 0.882-1.177 1.177-0.484 0.288-1.016 0.448-1.597 0.481v0c-0.792 0.045-1.51-0.099-2.152-0.433-0.643-0.34-1.157-0.835-1.543-1.485-0.393-0.649-0.614-1.404-0.663-2.264v-0.001c-0.048-0.84 0.084-1.601 0.395-2.283 0.311-0.682 0.763-1.229 1.356-1.639 0.593-0.41 1.283-0.638 2.068-0.682v0c0.601-0.034 1.158 0.065 1.671 0.296 0.514 0.238 0.951 0.587 1.314 1.045v0zM85.596 12.051c0.567-0.032 1.061-0.201 1.482-0.505 0.421-0.305 0.74-0.717 0.957-1.236 0.217-0.519 0.308-1.097 0.272-1.732v0c-0.036-0.635-0.191-1.195-0.465-1.679-0.275-0.491-0.638-0.868-1.092-1.131-0.453-0.255-0.963-0.367-1.529-0.334v0c-0.553 0.031-1.037 0.199-1.452 0.503-0.421 0.312-0.74 0.724-0.958 1.236-0.218 0.512-0.309 1.083-0.273 1.712v0c0.037 0.649 0.192 1.219 0.467 1.71 0.275 0.491 0.638 0.865 1.092 1.12 0.446 0.256 0.946 0.368 1.499 0.336z" fill="#7a26c1" data-fill-palette-color="primary"></path><path d="M97.105 4.532c0.573 0.04 1.097 0.193 1.572 0.46 0.468 0.266 0.83 0.637 1.085 1.114 0.255 0.477 0.36 1.026 0.317 1.648v0l-0.385 5.506-1.198-0.083 0.348-4.975c0.114-1.631-0.556-2.497-2.009-2.599v0c-0.839-0.059-1.492 0.198-1.957 0.769-0.465 0.564-0.732 1.351-0.803 2.361v0l-0.287 4.115-1.198-0.084 0.892-12.764 1.198 0.084-0.413 5.906c0.316-0.506 0.717-0.886 1.201-1.14 0.484-0.254 1.03-0.36 1.637-0.318z" fill="#7a26c1" data-fill-palette-color="primary"></path><path d="M111.455 2.562l1.175 0.242-2.582 12.532-1.175-0.242 0.246-1.196c-0.424 0.395-0.903 0.673-1.44 0.835-0.542 0.154-1.097 0.172-1.666 0.055v0c-0.777-0.16-1.433-0.484-1.969-0.972-0.534-0.494-0.904-1.105-1.11-1.831-0.213-0.728-0.233-1.515-0.059-2.359v0c0.17-0.824 0.492-1.526 0.968-2.105 0.476-0.579 1.053-0.991 1.732-1.236 0.679-0.244 1.404-0.287 2.174-0.128v0c0.59 0.121 1.103 0.36 1.539 0.715 0.435 0.362 0.769 0.811 1.001 1.348v0zM106.192 13.714c0.556 0.115 1.077 0.079 1.562-0.107 0.485-0.186 0.9-0.503 1.243-0.949 0.343-0.446 0.579-0.981 0.708-1.604v0c0.128-0.623 0.122-1.204-0.018-1.743-0.139-0.545-0.394-1.003-0.765-1.372-0.372-0.363-0.836-0.602-1.392-0.717v0c-0.543-0.112-1.053-0.074-1.532 0.114-0.487 0.193-0.901 0.509-1.243 0.949-0.342 0.439-0.576 0.967-0.704 1.583v0c-0.131 0.636-0.127 1.227 0.012 1.773 0.139 0.545 0.395 1 0.767 1.363 0.365 0.362 0.82 0.598 1.362 0.71z" fill="#7a26c1" data-fill-palette-color="primary"></path><path d="M114.677 16.753l-1.148-0.353 2.426-7.885 1.147 0.353zM116.994 7.16c-0.255-0.078-0.443-0.236-0.563-0.474-0.122-0.231-0.144-0.474-0.065-0.728v0c0.076-0.248 0.23-0.434 0.461-0.556 0.231-0.122 0.474-0.144 0.728-0.066v0c0.248 0.076 0.434 0.23 0.556 0.461 0.129 0.233 0.154 0.477 0.076 0.732v0c-0.076 0.248-0.233 0.433-0.471 0.553-0.233 0.129-0.473 0.155-0.722 0.078z" fill="#7a26c1" data-fill-palette-color="primary"></path><path d="M131.426 23.183l9.137-6.851 1.274 0.75-6.093 10.356-1.123-0.661 4.87-8.278-8.328 6.244-1.061-0.624 1.537-10.203-4.854 8.252-1.141-0.671 6.093-10.357 1.397 0.822z" fill="#7a26c1" data-fill-palette-color="primary"></path><path d="M148.288 27.212l0.919 0.772-5.31 6.314-0.919-0.772 0.786-0.935c-0.56 0.146-1.115 0.162-1.663 0.049-0.549-0.122-1.047-0.371-1.492-0.745v0c-0.607-0.511-1.03-1.108-1.269-1.791-0.234-0.689-0.269-1.402-0.105-2.139 0.159-0.742 0.516-1.443 1.071-2.103v0c0.542-0.644 1.159-1.108 1.854-1.391 0.694-0.283 1.398-0.371 2.111-0.262 0.713 0.108 1.371 0.416 1.973 0.922v0c0.461 0.387 0.799 0.841 1.013 1.361 0.21 0.526 0.29 1.079 0.239 1.662v0zM141.278 31.036c0.435 0.365 0.91 0.582 1.425 0.649 0.516 0.067 1.031-0.014 1.545-0.243 0.514-0.229 0.976-0.587 1.385-1.073v0c0.409-0.487 0.681-1.001 0.814-1.542 0.137-0.546 0.131-1.07-0.019-1.571-0.155-0.496-0.449-0.927-0.884-1.293v0c-0.424-0.357-0.891-0.566-1.402-0.629-0.52-0.062-1.035 0.019-1.544 0.243-0.51 0.224-0.967 0.576-1.373 1.058v0c-0.418 0.497-0.696 1.019-0.833 1.565-0.137 0.546-0.129 1.067 0.026 1.563 0.149 0.492 0.436 0.916 0.86 1.273z" fill="#7a26c1" data-fill-palette-color="primary"></path><path d="M154.81 33.461c0.39 0.422 0.666 0.894 0.829 1.413 0.158 0.515 0.166 1.033 0.024 1.555-0.142 0.522-0.442 0.994-0.9 1.416v0l-4.058 3.742-0.814-0.882 3.666-3.381c1.202-1.108 1.309-2.198 0.321-3.269v0c-0.57-0.619-1.221-0.88-1.95-0.784-0.725 0.092-1.46 0.481-2.204 1.167v0l-3.033 2.797-0.814-0.883 9.407-8.674 0.814 0.883-4.353 4.013c0.577-0.151 1.129-0.153 1.656-0.005 0.527 0.147 0.996 0.445 1.409 0.892z" fill="#7a26c1" data-fill-palette-color="primary"></path><path d="M166.601 41.874l0.689 0.983-10.477 7.345-0.689-0.983 0.999-0.701c-0.579-0.004-1.119-0.13-1.62-0.381-0.499-0.26-0.916-0.628-1.25-1.103v0c-0.456-0.65-0.711-1.335-0.765-2.057-0.049-0.726 0.1-1.424 0.449-2.095 0.345-0.676 0.87-1.262 1.576-1.756v0c0.689-0.483 1.405-0.772 2.149-0.867 0.744-0.095 1.446 0.001 2.107 0.289 0.661 0.288 1.218 0.754 1.67 1.398v0c0.346 0.493 0.555 1.018 0.629 1.577 0.068 0.562 0.002 1.118-0.197 1.667v0zM155.12 46.376c0.326 0.465 0.729 0.796 1.211 0.993 0.481 0.197 0.999 0.252 1.555 0.163 0.556-0.089 1.094-0.316 1.615-0.681v0c0.521-0.365 0.915-0.792 1.183-1.28 0.273-0.492 0.402-1 0.385-1.524-0.022-0.519-0.195-1.012-0.521-1.476v0c-0.318-0.454-0.716-0.776-1.193-0.969-0.487-0.194-1.005-0.248-1.555-0.162-0.55 0.085-1.083 0.308-1.598 0.669v0c-0.532 0.373-0.935 0.806-1.208 1.298-0.273 0.492-0.399 0.998-0.377 1.517 0.018 0.514 0.186 0.998 0.503 1.452z" fill="#7a26c1" data-fill-palette-color="primary"></path><path d="M168.481 54.614l0.553 1.066-7.322 3.8-0.553-1.066 1.084-0.562c-0.573-0.08-1.092-0.277-1.556-0.592-0.461-0.323-0.825-0.743-1.093-1.259v0c-0.366-0.704-0.528-1.418-0.486-2.14 0.047-0.726 0.288-1.398 0.722-2.017 0.431-0.625 1.029-1.135 1.794-1.532v0c0.747-0.388 1.495-0.579 2.245-0.576 0.75 0.004 1.433 0.193 2.051 0.566 0.618 0.373 1.107 0.909 1.469 1.607v0c0.277 0.534 0.416 1.083 0.415 1.646-0.007 0.566-0.145 1.108-0.416 1.626v0zM160.541 55.464c0.262 0.504 0.618 0.886 1.068 1.145 0.451 0.259 0.957 0.382 1.52 0.367 0.563-0.015 1.126-0.168 1.691-0.462v0c0.565-0.293 1.012-0.664 1.342-1.112 0.336-0.452 0.53-0.938 0.583-1.459 0.047-0.518-0.06-1.029-0.321-1.533v0c-0.255-0.492-0.607-0.864-1.054-1.117-0.457-0.256-0.963-0.379-1.52-0.368-0.557 0.011-1.114 0.162-1.673 0.452v0c-0.577 0.299-1.033 0.675-1.369 1.127-0.336 0.452-0.527 0.937-0.575 1.454-0.05 0.512 0.052 1.013 0.308 1.506z" fill="#7a26c1" data-fill-palette-color="primary"></path><path d="M166.842 69.027l6.853-0.085 0.365 1.09-8.674 0.077-0.397-1.187 5.366-3.916-6.69-0.045-0.381-1.138 6.961-5.196 0.403 1.207-5.547 4.084 6.901-0.036 0.368 1.099z" fill="#7a26c1" data-fill-palette-color="primary"></path><path d="M167.095 76.601l-0.259-1.172 8.056-1.778 0.259 1.172zM176.583 73.887c-0.057-0.261-0.013-0.502 0.135-0.723 0.141-0.22 0.341-0.359 0.601-0.416v0c0.254-0.056 0.491-0.014 0.711 0.127 0.22 0.141 0.359 0.341 0.417 0.601v0c0.056 0.254 0.014 0.491-0.127 0.711-0.139 0.227-0.339 0.369-0.599 0.427v0c-0.254 0.056-0.492 0.01-0.714-0.137-0.227-0.139-0.368-0.336-0.424-0.59z" fill="#7a26c1" data-fill-palette-color="primary"></path><path d="M7.59 122.81l-1.988-6.484 11.487-3.523 1.974 6.435-1.06 0.325-1.588-5.179-4.012 1.23 1.242 4.052-1.02 0.312-1.243-4.051-4.355 1.336 1.603 5.228z" fill="#7a26c1" data-fill-palette-color="primary"></path><path d="M18.332 126.101c0.234 0.525 0.346 1.059 0.335 1.604-0.014 0.538-0.172 1.032-0.474 1.481-0.301 0.449-0.736 0.801-1.304 1.055v0l-5.04 2.252-0.49-1.096 4.553-2.034c1.493-0.667 1.942-1.665 1.348-2.996v0c-0.343-0.768-0.876-1.223-1.599-1.365-0.716-0.144-1.537-0.01-2.461 0.403v0l-3.766 1.682-0.49-1.096 7.532-3.365 0.49 1.096-1.255 0.561c0.595 0.041 1.119 0.216 1.571 0.523 0.452 0.308 0.802 0.739 1.05 1.295z" fill="#7a26c1" data-fill-palette-color="primary"></path><path d="M24.281 137.161l0.632 1.021-6.745 4.174c-0.628 0.389-1.269 0.608-1.921 0.658-0.656 0.044-1.27-0.083-1.841-0.381-0.567-0.293-1.038-0.741-1.412-1.347v0l-1.798-2.905 0.925-0.573 1.798 2.906c0.378 0.611 0.907 0.971 1.586 1.082 0.674 0.114 1.351-0.04 2.032-0.461v0l0.767-0.475c-0.578-0.037-1.11-0.194-1.595-0.473-0.484-0.288-0.879-0.679-1.185-1.173v0c-0.418-0.675-0.633-1.374-0.646-2.098-0.008-0.727 0.182-1.416 0.568-2.065 0.383-0.655 0.941-1.21 1.674-1.663v0c0.715-0.443 1.447-0.69 2.195-0.743 0.748-0.052 1.444 0.084 2.087 0.41 0.644 0.326 1.173 0.823 1.587 1.491v0c0.317 0.512 0.496 1.049 0.538 1.61 0.036 0.565-0.062 1.116-0.293 1.653v0zM16.428 138.607c0.299 0.483 0.683 0.837 1.151 1.061 0.469 0.225 0.983 0.309 1.543 0.251 0.56-0.057 1.111-0.253 1.652-0.587v0c0.541-0.335 0.959-0.738 1.254-1.211 0.301-0.476 0.458-0.975 0.472-1.498 0.008-0.52-0.137-1.021-0.436-1.504v0c-0.292-0.471-0.67-0.816-1.135-1.036-0.475-0.221-0.989-0.305-1.543-0.251-0.554 0.053-1.099 0.246-1.634 0.577v0c-0.553 0.342-0.979 0.751-1.281 1.226-0.301 0.476-0.455 0.974-0.463 1.494-0.012 0.514 0.128 1.007 0.42 1.478z" fill="#7a26c1" data-fill-palette-color="primary"></path><path d="M21.263 147.03l-0.726-0.957 6.571-4.987 0.726 0.956zM28.743 140.592c-0.161-0.213-0.221-0.45-0.18-0.713 0.035-0.259 0.159-0.469 0.372-0.63v0c0.207-0.157 0.44-0.218 0.698-0.182 0.259 0.035 0.469 0.159 0.631 0.372v0c0.157 0.207 0.218 0.44 0.182 0.698-0.031 0.264-0.153 0.477-0.366 0.639v0c-0.207 0.157-0.442 0.215-0.705 0.174-0.264-0.031-0.475-0.151-0.632-0.358z" fill="#7a26c1" data-fill-palette-color="primary"></path><path d="M33.075 147.446c0.392 0.42 0.671 0.889 0.838 1.408 0.162 0.514 0.173 1.032 0.034 1.555-0.139 0.523-0.436 0.997-0.891 1.422v0l-4.034 3.768-0.819-0.878 3.644-3.403c1.195-1.116 1.295-2.206 0.3-3.272v0c-0.574-0.615-1.226-0.872-1.955-0.771-0.724 0.096-1.457 0.49-2.197 1.181v0l-3.014 2.816-0.82-0.877 6.029-5.631 0.82 0.877-1.005 0.938c0.576-0.155 1.128-0.16 1.656-0.016 0.527 0.144 0.999 0.438 1.414 0.883z" fill="#7a26c1" data-fill-palette-color="primary"></path><path d="M40.226 153.923c0.572 0.468 0.975 1.033 1.211 1.695 0.231 0.658 0.279 1.338 0.145 2.041-0.134 0.704-0.446 1.354-0.936 1.953v0c-0.143 0.175-0.257 0.303-0.341 0.384v0l-5.247-4.298c-0.5 0.687-0.743 1.42-0.729 2.202 0.01 0.786 0.351 1.455 1.023 2.005v0c0.545 0.446 1.082 0.714 1.611 0.802 0.525 0.094 1.045 0.047 1.561-0.14v0l0.335 1.097c-0.687 0.224-1.388 0.269-2.101 0.136-0.709-0.138-1.399-0.483-2.071-1.034v0c-0.619-0.507-1.053-1.101-1.3-1.781-0.243-0.685-0.287-1.398-0.133-2.138 0.15-0.744 0.493-1.444 1.031-2.1v0c0.537-0.656 1.151-1.13 1.842-1.423 0.695-0.298 1.399-0.397 2.114-0.298 0.715 0.099 1.376 0.398 1.985 0.897zM35.737 154.982l4.279 3.504c0.452-0.735 0.637-1.415 0.556-2.038-0.082-0.624-0.427-1.185-1.036-1.684v0c-0.593-0.485-1.233-0.692-1.92-0.618-0.683 0.068-1.31 0.347-1.879 0.836z" fill="#7a26c1" data-fill-palette-color="primary"></path><path d="M48.26 159.6c0.626 0.393 1.097 0.903 1.414 1.53 0.311 0.624 0.444 1.293 0.399 2.008-0.045 0.715-0.273 1.4-0.685 2.054v0c-0.12 0.191-0.217 0.332-0.291 0.423v0l-5.742-3.608c-0.411 0.744-0.56 1.502-0.448 2.275 0.108 0.779 0.53 1.4 1.265 1.862v0c0.597 0.375 1.163 0.573 1.699 0.595 0.532 0.027 1.043-0.084 1.531-0.335v0l0.47 1.046c-0.654 0.308-1.343 0.441-2.068 0.398-0.721-0.049-1.449-0.304-2.184-0.767v0c-0.678-0.426-1.182-0.961-1.513-1.604-0.327-0.65-0.46-1.351-0.398-2.105 0.055-0.757 0.309-1.494 0.76-2.212v0c0.451-0.718 1.001-1.265 1.65-1.642 0.652-0.382 1.339-0.569 2.06-0.56 0.721 0.009 1.415 0.223 2.081 0.642zM43.94 161.211l4.682 2.942c0.356-0.786 0.455-1.483 0.297-2.092-0.159-0.609-0.571-1.122-1.237-1.54v0c-0.649-0.408-1.31-0.532-1.983-0.374-0.67 0.153-1.256 0.507-1.759 1.064z" fill="#7a26c1" data-fill-palette-color="primary"></path><path d="M57.421 164.563c0.252 0.123 0.477 0.279 0.674 0.467v0l-0.478 0.977c-0.17-0.213-0.387-0.384-0.651-0.513v0c-0.455-0.222-0.937-0.302-1.448-0.24-0.52 0.066-1.013 0.281-1.481 0.646-0.474 0.362-0.87 0.869-1.189 1.52v0l-1.736 3.549-1.079-0.528 3.625-7.41 1.079 0.527-0.731 1.493c0.553-0.415 1.125-0.664 1.715-0.749 0.587-0.094 1.153-0.007 1.7 0.261z" fill="#7a26c1" data-fill-palette-color="primary"></path><path d="M71.864 176.407l6.634-9.296 1.44 0.329-2.67 11.715-1.27-0.29 2.134-9.364-6.046 8.473-1.201-0.274-1.624-10.189-2.127 9.334-1.291-0.294 2.67-11.715 1.581 0.36z" fill="#7a26c1" data-fill-palette-color="primary"></path><path d="M88.541 171.643l1.198 0.068-0.466 8.236-1.199-0.068 0.069-1.219c-0.361 0.452-0.795 0.798-1.302 1.036-0.513 0.231-1.06 0.33-1.641 0.298v0c-0.792-0.045-1.489-0.269-2.089-0.673-0.6-0.411-1.056-0.961-1.366-1.65-0.317-0.689-0.451-1.464-0.403-2.325v0c0.048-0.84 0.264-1.581 0.65-2.224 0.386-0.643 0.897-1.135 1.533-1.476 0.636-0.341 1.347-0.489 2.132-0.444v0c0.601 0.034 1.143 0.195 1.628 0.483 0.483 0.295 0.879 0.69 1.186 1.187v0zM85.221 178.906c0.567 0.032 1.077-0.079 1.529-0.335 0.453-0.255 0.817-0.629 1.092-1.12 0.275-0.491 0.43-1.055 0.465-1.69v0c0.036-0.635-0.055-1.209-0.272-1.722-0.217-0.519-0.536-0.935-0.957-1.246-0.421-0.305-0.915-0.473-1.482-0.505v0c-0.553-0.031-1.053 0.081-1.499 0.336-0.453 0.262-0.817 0.635-1.092 1.12-0.274 0.485-0.429 1.041-0.464 1.67v0c-0.037 0.649 0.053 1.233 0.271 1.752 0.217 0.519 0.536 0.931 0.957 1.236 0.414 0.304 0.898 0.472 1.452 0.504z" fill="#7a26c1" data-fill-palette-color="primary"></path><path d="M96.491 171.025c0.573-0.04 1.114 0.039 1.621 0.236 0.501 0.198 0.91 0.516 1.229 0.953 0.319 0.437 0.5 0.966 0.543 1.587v0l0.385 5.507-1.198 0.084-0.347-4.975c-0.114-1.631-0.898-2.396-2.352-2.294v0c-0.839 0.059-1.45 0.403-1.83 1.033-0.382 0.623-0.537 1.44-0.467 2.45v0l0.288 4.115-1.198 0.084-0.892-12.765 1.198-0.083 0.412 5.906c0.243-0.545 0.587-0.977 1.031-1.296 0.444-0.319 0.97-0.5 1.577-0.542z" fill="#7a26c1" data-fill-palette-color="primary"></path><path d="M107.955 164.793l1.176-0.242 2.582 12.532-1.176 0.242-0.247-1.196c-0.233 0.53-0.564 0.975-0.992 1.336-0.437 0.355-0.94 0.592-1.509 0.709v0c-0.777 0.16-1.508 0.122-2.192-0.114-0.686-0.243-1.267-0.657-1.744-1.243-0.484-0.585-0.812-1.299-0.987-2.144v0c-0.17-0.824-0.151-1.596 0.057-2.317 0.208-0.72 0.575-1.327 1.103-1.819 0.527-0.493 1.176-0.818 1.946-0.977v0c0.59-0.121 1.155-0.105 1.697 0.048 0.543 0.161 1.027 0.441 1.451 0.843v0zM107.529 177.117c0.556-0.115 1.02-0.353 1.393-0.716 0.372-0.363 0.628-0.817 0.766-1.363 0.139-0.545 0.144-1.13 0.016-1.753v0c-0.128-0.623-0.364-1.154-0.705-1.594-0.343-0.446-0.758-0.766-1.245-0.958-0.485-0.186-1.006-0.222-1.563-0.108v0c-0.543 0.112-0.997 0.349-1.362 0.71-0.371 0.37-0.626 0.824-0.767 1.363-0.14 0.539-0.147 1.116-0.02 1.733v0c0.131 0.636 0.368 1.178 0.712 1.624 0.343 0.446 0.758 0.762 1.243 0.948 0.479 0.188 0.989 0.226 1.532 0.114z" fill="#7a26c1" data-fill-palette-color="primary"></path><path d="M117.101 175.471l-1.147 0.353-2.426-7.885 1.148-0.353zM113.627 166.234c-0.255 0.078-0.499 0.053-0.732-0.075-0.231-0.122-0.385-0.311-0.464-0.566v0c-0.076-0.248-0.054-0.488 0.069-0.719 0.122-0.231 0.311-0.385 0.565-0.464v0c0.248-0.076 0.488-0.054 0.719 0.069 0.237 0.12 0.395 0.308 0.474 0.563v0c0.076 0.248 0.05 0.489-0.078 0.721-0.12 0.237-0.305 0.394-0.553 0.471z" fill="#7a26c1" data-fill-palette-color="primary"></path><path d="M134.109 165.72l-1.549-11.315 1.274-0.749 6.092 10.356-1.123 0.661-4.87-8.278 1.412 10.312-1.062 0.624-8.17-6.3 4.854 8.251-1.141 0.672-6.092-10.357 1.397-0.822z" fill="#7a26c1" data-fill-palette-color="primary"></path><path d="M142.977 150.814l0.919-0.772 5.309 6.313-0.918 0.773-0.786-0.934c0.047 0.577-0.032 1.126-0.237 1.647-0.215 0.52-0.545 0.968-0.99 1.342v0c-0.607 0.511-1.268 0.825-1.982 0.943-0.719 0.113-1.427 0.025-2.126-0.264-0.704-0.284-1.333-0.756-1.888-1.416v0c-0.542-0.644-0.892-1.332-1.052-2.064-0.16-0.732-0.126-1.441 0.103-2.125 0.229-0.684 0.645-1.279 1.247-1.786v0c0.461-0.387 0.966-0.642 1.515-0.765 0.554-0.117 1.113-0.1 1.678 0.051v0zM145.542 158.377c0.435-0.365 0.729-0.796 0.884-1.293 0.155-0.496 0.163-1.018 0.026-1.564-0.137-0.546-0.411-1.062-0.82-1.549v0c-0.409-0.487-0.869-0.842-1.379-1.066-0.514-0.229-1.031-0.312-1.552-0.25-0.516 0.067-0.991 0.283-1.425 0.649v0c-0.424 0.357-0.711 0.781-0.86 1.273-0.15 0.502-0.159 1.023-0.026 1.563 0.133 0.541 0.402 1.052 0.807 1.534v0c0.418 0.497 0.885 0.861 1.399 1.089 0.514 0.229 1.029 0.31 1.545 0.243 0.51-0.063 0.978-0.272 1.401-0.629z" fill="#7a26c1" data-fill-palette-color="primary"></path><path d="M148.336 144.911c0.39-0.422 0.837-0.736 1.342-0.94 0.5-0.199 1.016-0.249 1.548-0.15 0.532 0.099 1.026 0.36 1.483 0.782v0l4.059 3.742-0.814 0.883-3.666-3.381c-1.202-1.108-2.297-1.127-3.285-0.055v0c-0.57 0.619-0.778 1.288-0.623 2.007 0.15 0.715 0.597 1.416 1.342 2.103v0l3.032 2.796-0.814 0.882-9.406-8.674 0.814-0.882 4.352 4.013c-0.197-0.563-0.244-1.113-0.139-1.65 0.104-0.537 0.363-1.029 0.775-1.476z" fill="#7a26c1" data-fill-palette-color="primary"></path><path d="M152.399 132.512l0.69-0.983 10.477 7.345-0.689 0.983-1-0.701c0.194 0.545 0.259 1.096 0.195 1.653-0.074 0.558-0.278 1.075-0.612 1.551v0c-0.456 0.65-1.013 1.123-1.673 1.421-0.665 0.294-1.373 0.391-2.122 0.292-0.753-0.094-1.483-0.388-2.188-0.882v0c-0.689-0.483-1.205-1.058-1.548-1.725-0.343-0.667-0.492-1.36-0.447-2.08 0.045-0.72 0.294-1.402 0.746-2.046v0c0.346-0.493 0.768-0.869 1.267-1.129 0.505-0.256 1.05-0.383 1.635-0.383v0zM160.546 141.769c0.326-0.465 0.5-0.957 0.521-1.476 0.022-0.519-0.104-1.025-0.377-1.518-0.273-0.492-0.67-0.921-1.191-1.286v0c-0.521-0.365-1.057-0.59-1.607-0.675-0.556-0.089-1.077-0.037-1.563 0.157-0.481 0.197-0.884 0.529-1.211 0.993v0c-0.318 0.454-0.486 0.938-0.503 1.452-0.016 0.523 0.11 1.029 0.377 1.517 0.268 0.488 0.659 0.913 1.174 1.275v0c0.532 0.373 1.076 0.604 1.632 0.693 0.556 0.089 1.074 0.035 1.555-0.163 0.477-0.192 0.875-0.515 1.193-0.969z" fill="#7a26c1" data-fill-palette-color="primary"></path><path d="M161.157 125.926l0.553-1.065 7.322 3.8-0.553 1.065-1.084-0.562c0.265 0.515 0.402 1.052 0.412 1.612 0.001 0.563-0.133 1.102-0.401 1.619v0c-0.366 0.704-0.856 1.248-1.47 1.63-0.621 0.379-1.309 0.569-2.065 0.57-0.759 0.007-1.521-0.188-2.286-0.585v0c-0.747-0.388-1.334-0.889-1.762-1.504-0.428-0.615-0.668-1.283-0.718-2.003-0.05-0.72 0.106-1.429 0.468-2.127v0c0.277-0.534 0.646-0.963 1.107-1.287 0.467-0.32 0.99-0.519 1.569-0.596v0zM166.422 131.93c0.262-0.504 0.369-1.015 0.321-1.532-0.047-0.518-0.239-1.003-0.575-1.455-0.336-0.452-0.786-0.824-1.35-1.117v0c-0.565-0.293-1.125-0.445-1.682-0.456-0.563-0.015-1.072 0.106-1.529 0.362-0.451 0.259-0.807 0.641-1.069 1.145v0c-0.255 0.492-0.358 0.994-0.307 1.505 0.053 0.521 0.245 1.006 0.575 1.455 0.33 0.449 0.774 0.818 1.332 1.107v0c0.577 0.299 1.147 0.456 1.71 0.471 0.563 0.015 1.069-0.108 1.52-0.367 0.447-0.253 0.799-0.626 1.054-1.118z" fill="#7a26c1" data-fill-palette-color="primary"></path><path d="M171.394 116.837l-5.525-4.055 0.364-1.09 6.975 5.157-0.398 1.187-6.641-0.101 5.317 4.062-0.381 1.138-8.686-0.038 0.403-1.207 6.889 0.076-5.535-4.124 0.368-1.099z" fill="#7a26c1" data-fill-palette-color="primary"></path><path d="M175.148 109.518l-0.259 1.172-8.056-1.778 0.259-1.172zM165.399 107.986c-0.057 0.261-0.2 0.46-0.427 0.6-0.22 0.141-0.46 0.182-0.721 0.124v0c-0.254-0.056-0.451-0.194-0.592-0.414-0.141-0.22-0.182-0.46-0.124-0.721v0c0.056-0.254 0.194-0.451 0.414-0.592 0.222-0.147 0.463-0.192 0.723-0.134v0c0.254 0.056 0.45 0.197 0.59 0.424 0.147 0.222 0.193 0.459 0.137 0.713z" fill="#7a26c1" data-fill-palette-color="primary"></path><path d="M1.529 92.171c0-2.699 2.188-4.887 4.887-4.887 2.699 0 4.887 2.188 4.887 4.887 0 2.699-2.188 4.887-4.887 4.887-2.699 0-4.887-2.188-4.887-4.887z" fill="#7a26c1" data-fill-palette-color="primary"></path><path d="M167.759 92.171c0-2.699 2.188-4.887 4.886-4.887 2.699 0 4.887 2.188 4.887 4.887 0 2.699-2.188 4.887-4.887 4.887-2.699 0-4.887-2.188-4.886-4.887z" fill="#7a26c1" data-fill-palette-color="primary"></path></g><g id="text-1"></g></svg></g></svg></g></svg></g></svg></g></svg></g></svg></g><defs></defs></svg><rect width="448" height="360" fill="none" stroke="none" visibility="hidden"></rect></g></svg></g></svg>